<svg version="1.1" id="Layer_1" xmlns="http://www.w3.org/2000/svg" xmlns:xlink="http://www.w3.org/1999/xlink" x="0px" y="0px"
	 width="100%" viewBox="0 0 400 400" enable-background="new 0 0 400 400" xml:space="preserve">
<path fill="#7E489A" opacity="1.000000" stroke="none" 
	d="
M401.000000,295.000000 
	C401.000000,298.692902 401.000000,302.385834 400.640930,306.614471 
	C397.056091,309.065369 393.422638,310.524139 390.677277,312.976929 
	C380.399445,322.159393 370.463135,331.722565 360.303650,341.039215 
	C345.988586,354.166687 331.557220,367.167480 317.277557,380.333008 
	C315.943665,381.562866 315.340210,383.584930 314.397644,385.239197 
	C316.311096,385.825867 318.222504,386.915588 320.138336,386.923523 
	C347.091858,387.035278 374.046021,386.999756 401.000000,387.000000 
	C401.000000,391.661865 401.000000,396.323730 401.000000,400.963440 
	C267.666656,400.963440 134.333328,400.963440 1.000000,400.963440 
	C1.000000,395.932068 1.000000,390.937256 1.468657,385.471191 
	C24.710077,385.000000 47.482937,385.029785 70.255447,384.953400 
	C72.511131,384.945831 74.764656,384.289337 77.390030,383.954163 
	C78.503563,384.003204 79.246262,384.032043 80.286041,384.277924 
	C84.717361,385.353302 88.851608,386.211609 93.287071,387.301025 
	C100.395142,387.983521 107.201988,388.434937 114.476280,388.912384 
	C167.931305,388.948975 220.918884,388.959503 274.343903,388.977417 
	C276.520721,388.989441 278.260071,388.994110 280.465759,388.999268 
	C284.427643,388.992767 287.970490,389.333679 291.403687,388.867279 
	C294.087799,388.502594 297.251892,387.820099 299.149628,386.110107 
	C319.387268,367.874268 339.457458,349.451447 359.483063,330.981812 
	C370.721161,320.616882 381.712402,309.983459 393.001068,299.674927 
	C395.230927,297.638641 398.311676,296.534180 401.000000,295.000000 
z"/>
<path fill="#000000" opacity="1.000000" stroke="none" 
	d="
M1.000000,14.000000 
	C1.000000,9.671346 1.000000,5.342691 1.000001,1.020400 
	C134.333344,1.026764 267.666656,1.026764 401.000000,1.026764 
	C401.000000,4.716235 401.000000,8.378942 400.531342,12.520813 
	C349.846252,12.999976 299.629791,12.990153 249.413345,13.007584 
	C238.275925,13.011450 227.138550,13.111506 215.547180,13.099468 
	C211.729355,13.076520 208.365509,13.121377 204.541153,13.098425 
	C199.720688,13.075957 195.360748,13.121298 190.584106,13.099304 
	C187.436813,13.410754 184.706207,13.789540 181.738373,14.115879 
	C181.501114,14.063431 181.025650,14.163951 180.650482,14.095804 
	C179.517136,14.072501 178.758957,14.117346 177.536102,14.097036 
	C118.380928,14.021255 59.690464,14.010627 1.000000,14.000000 
z"/>
<path fill="#77499C" opacity="1.000000" stroke="none" 
	d="
M401.000000,324.000000 
	C401.000000,343.020905 401.000000,362.041779 400.531342,381.531342 
	C377.238342,382.000000 354.413971,382.000000 331.589630,382.000000 
	C331.424713,381.438660 331.259796,380.877289 331.094879,380.315948 
	C332.275940,378.831421 333.286011,377.161438 334.664215,375.890808 
	C350.294312,361.481354 366.136200,347.297211 381.570160,332.681824 
	C387.195221,327.355103 392.452301,322.292542 401.000000,324.000000 
z"/>
<path fill="#E1306F" opacity="1.000000" stroke="none" 
	d="
M401.000000,54.000000 
	C401.000000,59.022091 401.000000,64.044182 400.531342,69.532974 
	C370.068298,69.999573 340.069061,70.298866 310.082642,69.810898 
	C301.459564,69.670578 295.214081,72.730568 289.109711,78.194878 
	C283.830353,82.920670 277.767303,86.770988 271.887299,90.699829 
	C268.497528,85.588020 265.271149,80.784676 262.028778,75.736374 
	C262.012787,75.491417 261.974060,75.001991 262.259033,74.824326 
	C269.539703,69.056816 276.703583,63.660561 283.458893,57.793854 
	C286.742218,54.942421 290.129730,53.942333 294.325287,53.952381 
	C329.883362,54.037529 365.441711,54.000420 401.000000,54.000000 
z"/>
<path fill="#77499C" opacity="1.000000" stroke="none" 
	d="
M77.019180,383.934052 
	C74.764656,384.289337 72.511131,384.945831 70.255447,384.953400 
	C47.482937,385.029785 24.710077,385.000000 1.468657,385.000000 
	C1.000000,365.312439 1.000000,345.624878 1.429614,325.468658 
	C4.592517,324.653259 7.325807,324.306519 10.296124,324.204590 
	C16.906923,333.957367 22.454874,344.184052 29.910353,352.750580 
	C36.106277,359.869904 44.545509,365.036865 52.215691,371.313843 
	C58.293701,374.674194 64.147049,377.789307 70.317276,381.063721 
	C72.762489,382.126678 74.890831,383.030365 77.019180,383.934052 
z"/>
<path fill="#F68A2A" opacity="1.000000" stroke="none" 
	d="
M1.000000,169.000000 
	C1.000000,166.629440 1.000000,164.258896 1.468657,161.444092 
	C30.372532,160.999695 58.807831,161.030197 87.242844,160.953568 
	C90.199982,160.945602 93.155411,160.302048 96.473602,159.965927 
	C97.557983,159.932159 98.280396,159.885864 99.468399,159.892487 
	C106.286041,159.910309 112.638107,159.875198 119.457184,159.892670 
	C170.282272,159.948181 220.640335,159.951126 270.855164,160.261642 
	C269.794434,162.376968 268.876953,164.184692 267.692322,166.007507 
	C267.247528,166.037704 267.069855,166.052811 266.432617,166.046234 
	C247.981506,166.070038 229.989929,166.115540 211.531708,166.113586 
	C200.707870,166.100082 190.350662,166.134018 179.527466,166.118530 
	C169.372787,166.101959 159.684143,166.134827 149.529495,166.117188 
	C142.039612,166.102234 135.015717,166.137772 127.526428,166.121979 
	C120.705193,166.105927 114.349342,166.141235 107.544617,166.124039 
	C100.383247,167.015274 93.670746,167.959030 86.556084,168.940491 
	C85.079582,169.045761 84.005257,169.113342 82.469421,169.127121 
	C55.005280,169.048889 28.002640,169.024445 1.000000,169.000000 
z"/>
<path fill="#824799" opacity="1.000000" stroke="none" 
	d="
M401.000000,294.532410 
	C398.311676,296.534180 395.230927,297.638641 393.001068,299.674927 
	C381.712402,309.983459 370.721161,320.616882 359.483063,330.981812 
	C339.457458,349.451447 319.387268,367.874268 299.149628,386.110107 
	C297.251892,387.820099 294.087799,388.502594 291.403687,388.867279 
	C287.970490,389.333679 284.427643,388.992767 280.578552,388.687317 
	C292.060516,377.308716 303.932526,366.281067 315.684082,355.126526 
	C317.119629,353.763885 317.908447,351.719940 319.245270,349.758911 
	C323.667664,347.022217 327.841766,344.518372 332.350159,341.930573 
	C337.466919,337.572052 342.249390,333.297485 347.310638,328.838806 
	C350.409027,324.774719 353.228668,320.894745 356.261353,316.801575 
	C357.004608,315.728424 357.534821,314.868500 358.419708,313.977264 
	C360.179169,313.132874 361.786285,312.541199 362.956757,311.471680 
	C372.154175,303.067688 381.196106,294.492523 390.446075,286.147614 
	C393.736298,283.179291 397.469177,280.701630 401.000000,278.000000 
	C401.000000,283.354919 401.000000,288.709869 401.000000,294.532410 
z"/>
<path fill="#9D2383" opacity="1.000000" stroke="none" 
	d="
M51.991032,371.068634 
	C44.545509,365.036865 36.106277,359.869904 29.910353,352.750580 
	C22.454874,344.184052 16.906923,333.957367 10.214315,323.843506 
	C6.930320,313.491730 3.965161,303.745850 1.000001,294.000000 
	C1.000000,283.312439 1.000000,272.624878 1.198037,261.259094 
	C1.623208,260.055969 1.850342,259.531067 2.386934,259.130127 
	C3.875853,261.016998 5.339339,262.653046 6.192283,264.561890 
	C19.543613,294.441681 32.881168,324.328094 46.047165,354.289795 
	C48.427742,359.707275 50.029640,365.466949 51.991032,371.068634 
z"/>
<path fill="#D93172" opacity="1.000000" stroke="none" 
	d="
M1.000000,55.000000 
	C1.000000,50.643101 1.000000,46.286201 1.468657,41.464607 
	C40.683365,40.999912 79.429443,40.980602 118.175392,41.042889 
	C120.788734,41.047089 123.401085,41.666828 125.832825,42.280224 
	C121.776482,47.040035 117.901222,51.519905 113.637695,55.844818 
	C110.780823,55.459984 108.312454,55.032993 105.843559,55.029911 
	C70.895744,54.986229 35.947865,55.000076 1.000000,55.000000 
z"/>
<path fill="#C4367B" opacity="1.000000" stroke="none" 
	d="
M401.000000,15.000000 
	C401.000000,16.388998 401.000000,17.777994 400.531342,19.583267 
	C349.987701,19.999487 299.912506,20.066784 249.838043,19.907066 
	C244.112381,19.888803 239.530807,21.619236 235.307602,25.227736 
	C228.996841,30.619926 222.585205,35.895535 216.162048,41.154240 
	C210.948868,45.422325 210.941544,45.645645 216.643341,49.207825 
	C206.611359,50.233135 196.940872,50.969376 186.783188,47.994900 
	C187.866013,46.435577 188.328613,45.329174 189.147675,44.657303 
	C198.406342,37.062435 207.994186,29.842176 216.924377,21.882639 
	C223.153076,16.330929 229.993317,14.876829 238.007095,14.904003 
	C292.337555,15.088228 346.668915,15.000101 401.000000,15.000000 
z"/>
<path fill="#D13375" opacity="1.000000" stroke="none" 
	d="
M401.000000,30.000000 
	C401.000000,32.370556 401.000000,34.741116 400.531342,37.555763 
	C359.104523,37.999973 318.146057,37.933090 277.188843,38.129314 
	C273.964874,38.144760 270.220032,39.257050 267.629669,41.124916 
	C259.823547,46.753792 252.468201,53.007755 244.590881,58.939369 
	C240.844055,57.564957 237.443451,56.269146 233.913605,54.725662 
	C233.520416,53.985516 233.256454,53.493042 233.273682,52.822517 
	C238.873184,48.125977 244.408691,43.835907 249.458038,39.034554 
	C256.730560,32.119251 264.866516,29.632286 275.091888,29.767593 
	C317.054932,30.322868 359.029602,29.999847 401.000000,30.000000 
z"/>
<path fill="#E1306F" opacity="1.000000" stroke="none" 
	d="
M1.000000,55.464653 
	C35.947865,55.000076 70.895744,54.986229 105.843559,55.029911 
	C108.312454,55.032993 110.780823,55.459984 113.457169,56.130882 
	C110.745354,61.051899 107.825806,65.531891 104.486069,69.995926 
	C99.443375,69.653313 94.821640,69.057121 90.198227,69.043800 
	C60.465694,68.958092 30.732786,69.000000 1.000000,69.000000 
	C1.000000,64.643097 1.000000,60.286201 1.000000,55.464653 
z"/>
<path fill="#E62F6C" opacity="1.000000" stroke="none" 
	d="
M272.050690,91.008301 
	C277.767303,86.770988 283.830353,82.920670 289.109711,78.194878 
	C295.214081,72.730568 301.459564,69.670578 310.082642,69.810898 
	C340.069061,70.298866 370.068298,69.999573 400.531342,69.999832 
	C401.000000,73.361290 401.000000,76.722572 400.531342,80.541763 
	C370.126862,80.999718 340.190216,80.898758 310.256348,81.139999 
	C306.879944,81.167206 302.957825,82.358177 300.256592,84.333191 
	C292.229523,90.202110 284.685760,96.732025 276.743530,102.730682 
	C275.368622,99.967316 274.203278,97.476830 273.010742,94.642570 
	C272.672577,93.201958 272.361633,92.105125 272.050690,91.008301 
z"/>
<path fill="#F68A2A" opacity="1.000000" stroke="none" 
	d="
M401.000000,159.000000 
	C401.000000,161.700623 401.000000,164.401260 400.531372,167.555420 
	C371.967896,168.011276 343.872620,167.945435 315.779236,168.146622 
	C313.554321,168.162552 311.342682,170.031174 308.701477,171.031174 
	C305.215088,172.047760 301.858551,172.586502 299.162231,174.217026 
	C295.661346,176.334076 292.654114,179.282013 289.489471,181.937958 
	C274.971405,194.122330 260.548889,206.422256 245.919556,218.471222 
	C241.625702,222.007706 236.764542,224.855377 232.238617,227.681976 
	C235.597687,221.900620 238.881546,216.456024 242.498474,210.928726 
	C244.131424,210.131165 245.576187,209.594742 246.709412,208.674637 
	C263.327698,195.181839 280.096375,181.863739 296.405334,168.005203 
	C303.892822,161.642700 311.700378,158.617889 321.695251,158.819717 
	C348.120575,159.353394 374.563873,159.000198 401.000000,159.000000 
z"/>
<path fill="#D63273" opacity="1.000000" stroke="none" 
	d="
M244.937073,59.017967 
	C252.468201,53.007755 259.823547,46.753792 267.629669,41.124916 
	C270.220032,39.257050 273.964874,38.144760 277.188843,38.129314 
	C318.146057,37.933090 359.104523,37.999973 400.531342,37.999931 
	C401.000000,40.370556 401.000000,42.741116 400.531342,45.555801 
	C362.776917,45.999939 325.490753,46.080872 288.205780,45.909412 
	C282.844971,45.884758 278.575378,47.420586 274.588257,50.847595 
	C268.166504,56.367195 261.525940,61.632225 254.646240,66.924377 
	C251.188782,64.235298 248.062927,61.626633 244.937073,59.017967 
z"/>
<path fill="#7C489B" opacity="1.000000" stroke="none" 
	d="
M401.000000,323.532410 
	C392.452301,322.292542 387.195221,327.355103 381.570160,332.681824 
	C366.136200,347.297211 350.294312,361.481354 334.664215,375.890808 
	C333.286011,377.161438 332.275940,378.831421 331.094879,380.315948 
	C331.259796,380.877289 331.424713,381.438660 331.589630,382.000000 
	C354.413971,382.000000 377.238342,382.000000 400.531342,382.000000 
	C401.000000,383.388885 401.000000,384.777802 401.000000,386.583344 
	C374.046021,386.999756 347.091858,387.035278 320.138336,386.923523 
	C318.222504,386.915588 316.311096,385.825867 314.397644,385.239197 
	C315.340210,383.584930 315.943665,381.562866 317.277557,380.333008 
	C331.557220,367.167480 345.988586,354.166687 360.303650,341.039215 
	C370.463135,331.722565 380.399445,322.159393 390.677277,312.976929 
	C393.422638,310.524139 397.056091,309.065369 400.640930,307.075104 
	C401.000000,312.354919 401.000000,317.709869 401.000000,323.532410 
z"/>
<path fill="#D13375" opacity="1.000000" stroke="none" 
	d="
M126.013901,42.000286 
	C123.401085,41.666828 120.788734,41.047089 118.175392,41.042889 
	C79.429443,40.980602 40.683365,40.999912 1.468657,40.999954 
	C1.000000,37.969406 1.000000,34.938812 1.468657,31.453978 
	C45.361816,30.999691 88.786339,30.984554 132.210754,31.042418 
	C134.475098,31.045433 136.738617,31.670038 138.766449,32.237755 
	C134.358231,35.646935 130.186066,38.823608 126.013901,42.000286 
z"/>
<path fill="#E62F6C" opacity="1.000000" stroke="none" 
	d="
M1.000000,69.463181 
	C30.732786,69.000000 60.465694,68.958092 90.198227,69.043800 
	C94.821640,69.057121 99.443375,69.653313 104.333138,70.295540 
	C102.423897,74.742981 100.247391,78.874847 97.679306,82.852417 
	C94.818939,82.465225 92.350471,82.033638 89.881325,82.029755 
	C60.254272,81.983093 30.627123,81.999825 1.000000,82.000000 
	C1.000000,77.975456 1.000000,73.950912 1.000000,69.463181 
z"/>
<path fill="#DB3171" opacity="1.000000" stroke="none" 
	d="
M254.977829,67.004791 
	C261.525940,61.632225 268.166504,56.367195 274.588257,50.847595 
	C278.575378,47.420586 282.844971,45.884758 288.205780,45.909412 
	C325.490753,46.080872 362.776917,45.999939 400.531342,45.999969 
	C401.000000,48.370556 401.000000,50.741116 401.000000,53.555836 
	C365.441711,54.000420 329.883362,54.037529 294.325287,53.952381 
	C290.129730,53.942333 286.742218,54.942421 283.458893,57.793854 
	C276.703583,63.660561 269.539703,69.056816 261.979797,74.645912 
	C259.269714,72.098366 257.123779,69.551575 254.977829,67.004791 
z"/>
<path fill="#CC3477" opacity="1.000000" stroke="none" 
	d="
M401.000000,29.571537 
	C359.029602,29.999847 317.054932,30.322868 275.091888,29.767593 
	C264.866516,29.632286 256.730560,32.119251 249.458038,39.034554 
	C244.408691,43.835907 238.873184,48.125977 232.910095,52.746437 
	C229.177490,51.898197 226.089661,50.947994 223.030029,49.638058 
	C224.227554,47.532703 225.078247,45.407810 226.623428,44.109531 
	C232.213791,39.412510 238.413162,35.385872 243.667603,30.358814 
	C248.931519,25.322655 254.760483,23.886890 261.770813,23.912334 
	C308.180023,24.080774 354.590179,23.999784 401.000000,24.000000 
	C401.000000,25.714357 401.000000,27.428717 401.000000,29.571537 
z"/>
<path fill="#F48031" opacity="1.000000" stroke="none" 
	d="
M401.000000,146.000000 
	C401.000000,148.370560 401.000000,150.741104 400.531342,153.555649 
	C371.737427,153.999710 343.411865,153.941376 315.087372,154.089920 
	C312.243835,154.104843 308.725433,154.532135 306.674561,156.193268 
	C290.135162,169.589355 273.939056,183.408432 257.475098,196.899323 
	C253.693832,199.997742 249.282333,202.327011 245.235153,204.702057 
	C246.152176,202.941010 246.994919,201.488129 248.005814,199.730072 
	C249.748108,196.938461 251.322281,194.452057 253.241272,191.893768 
	C255.410263,190.684189 257.382965,189.728531 259.035431,188.380386 
	C274.234039,175.980957 289.422913,163.568527 304.507507,151.031036 
	C308.799225,147.464020 313.309692,145.824631 319.050018,145.880585 
	C346.364471,146.146820 373.682953,145.999878 401.000000,146.000000 
z"/>
<path fill="#A14391" opacity="1.000000" stroke="none" 
	d="
M401.000000,199.000000 
	C401.000000,204.354935 401.000000,209.709854 400.531982,215.532227 
	C397.745300,215.999557 395.395691,216.243561 393.113617,215.954422 
	C385.770264,215.023987 380.285400,217.586716 375.152374,223.049835 
	C369.778412,228.769440 363.197113,233.354614 356.902527,238.253830 
	C355.790192,237.014160 354.918854,235.956314 354.012695,234.553879 
	C352.354553,232.122421 350.731262,230.035538 348.961670,227.643356 
	C347.169434,225.237686 345.523529,223.137314 344.169250,220.861908 
	C349.947205,215.653000 355.497375,210.686523 360.900238,205.564636 
	C365.482880,201.220322 370.240662,198.259872 377.138336,198.845169 
	C385.039703,199.515640 393.041718,199.000198 401.000000,199.000000 
z"/>
<path fill="#CC3477" opacity="1.000000" stroke="none" 
	d="
M139.002518,32.005257 
	C136.738617,31.670038 134.475098,31.045433 132.210754,31.042418 
	C88.786339,30.984554 45.361816,30.999691 1.468657,30.999866 
	C1.000000,28.629442 1.000000,26.258884 1.468657,23.444244 
	C49.345001,23.000233 96.752708,22.984453 144.160324,23.043005 
	C146.774139,23.046234 149.387192,23.666874 151.803467,24.275612 
	C147.405045,27.035816 143.203781,29.520536 139.002518,32.005257 
z"/>
<path fill="#B93F8B" opacity="1.000000" stroke="none" 
	d="
M309.124878,171.038788 
	C311.342682,170.031174 313.554321,168.162552 315.779236,168.146622 
	C343.872620,167.945435 371.967896,168.011276 400.531372,168.004471 
	C401.000000,170.041672 401.000000,172.083328 400.531342,174.562378 
	C383.099335,174.999619 366.126495,175.340179 349.176300,174.867599 
	C339.493958,174.597656 330.551025,174.917542 324.455505,183.892273 
	C324.017303,184.537476 323.042450,184.791504 322.474670,185.379547 
	C317.198273,190.844391 311.956451,196.342651 306.268890,201.817795 
	C301.978577,201.036407 298.124023,200.268448 294.193512,199.485336 
	C295.253906,197.126312 296.159607,195.111359 297.369629,192.929214 
	C301.490936,185.520950 305.307892,178.279861 309.124878,171.038788 
z"/>
<path fill="#F2733A" opacity="1.000000" stroke="none" 
	d="
M266.892151,166.067932 
	C267.069855,166.052811 267.247528,166.037704 268.056549,165.981598 
	C270.270752,165.087982 272.030975,164.455917 273.408722,163.348160 
	C285.199219,153.867981 296.785645,144.126831 308.763214,134.891800 
	C311.537048,132.753082 315.564148,131.205917 319.034119,131.167816 
	C346.353394,130.867844 373.677429,131.000534 401.000000,131.000000 
	C401.000000,133.700623 401.000000,136.401260 400.531372,139.550720 
	C390.613708,139.666397 381.166504,139.126633 371.715271,139.044601 
	C353.929352,138.890213 336.139160,139.148010 318.355072,138.910294 
	C312.968872,138.838287 308.603577,140.794678 304.678833,143.916290 
	C295.201050,151.454681 285.991302,159.331039 276.484100,166.831055 
	C271.847443,170.488800 266.787323,173.609772 261.994843,176.623352 
	C263.677917,172.871307 265.285034,169.469620 266.892151,166.067932 
z"/>
<path fill="#C1377C" opacity="1.000000" stroke="none" 
	d="
M223.001831,49.997787 
	C226.089661,50.947994 229.177490,51.898197 232.628906,52.924484 
	C233.256454,53.493042 233.520416,53.985516 233.440140,54.733318 
	C212.339081,54.988647 191.582291,54.988647 170.825485,54.988647 
	C170.711716,54.448906 170.597946,53.909164 170.484192,53.369423 
	C172.149857,51.590389 173.650955,49.613670 175.509613,48.066471 
	C183.664444,41.278168 192.032761,34.743195 200.105209,27.860157 
	C205.591293,23.182367 210.715256,18.079857 216.001144,13.167275 
	C227.138550,13.111506 238.275925,13.011450 249.413345,13.007584 
	C299.629791,12.990153 349.846252,12.999976 400.531342,12.999989 
	C401.000000,13.444445 401.000000,13.888889 401.000000,14.666667 
	C346.668915,15.000101 292.337555,15.088228 238.007095,14.904003 
	C229.993317,14.876829 223.153076,16.330929 216.924377,21.882639 
	C207.994186,29.842176 198.406342,37.062435 189.147675,44.657303 
	C188.328613,45.329174 187.866013,46.435577 186.783188,47.994900 
	C196.940872,50.969376 206.611359,50.233135 217.027313,49.216469 
	C219.512314,49.343403 221.257065,49.670597 223.001831,49.997787 
z"/>
<path fill="#F37936" opacity="1.000000" stroke="none" 
	d="
M261.918884,176.973724 
	C266.787323,173.609772 271.847443,170.488800 276.484100,166.831055 
	C285.991302,159.331039 295.201050,151.454681 304.678833,143.916290 
	C308.603577,140.794678 312.968872,138.838287 318.355072,138.910294 
	C336.139160,139.148010 353.929352,138.890213 371.715271,139.044601 
	C381.166504,139.126633 390.613708,139.666397 400.531372,139.999771 
	C401.000000,141.714355 401.000000,143.428711 401.000000,145.571533 
	C373.682953,145.999878 346.364471,146.146820 319.050018,145.880585 
	C313.309692,145.824631 308.799225,147.464020 304.507507,151.031036 
	C289.422913,163.568527 274.234039,175.980957 259.035431,188.380386 
	C257.382965,189.728531 255.410263,190.684189 253.322357,191.548843 
	C256.012054,186.508453 258.965485,181.741089 261.918884,176.973724 
z"/>
<path fill="#C83579" opacity="1.000000" stroke="none" 
	d="
M223.030029,49.638054 
	C221.257065,49.670597 219.512314,49.343403 217.383575,49.007561 
	C210.941544,45.645645 210.948868,45.422325 216.162048,41.154240 
	C222.585205,35.895535 228.996841,30.619926 235.307602,25.227736 
	C239.530807,21.619236 244.112381,19.888803 249.838043,19.907066 
	C299.912506,20.066784 349.987701,19.999487 400.531342,19.999771 
	C401.000000,21.066669 401.000000,22.133339 401.000000,23.600004 
	C354.590179,23.999784 308.180023,24.080774 261.770813,23.912334 
	C254.760483,23.886890 248.931519,25.322655 243.667603,30.358814 
	C238.413162,35.385872 232.213791,39.412510 226.623428,44.109531 
	C225.078247,45.407810 224.227554,47.532703 223.030029,49.638054 
z"/>
<path fill="#B3408C" opacity="1.000000" stroke="none" 
	d="
M306.704620,201.831207 
	C311.956451,196.342651 317.198273,190.844391 322.474670,185.379547 
	C323.042450,184.791504 324.017303,184.537476 324.455505,183.892273 
	C330.551025,174.917542 339.493958,174.597656 349.176300,174.867599 
	C366.126495,175.340179 383.099335,174.999619 400.531342,174.999878 
	C401.000000,177.041672 401.000000,179.083328 400.531342,181.562347 
	C383.985016,181.999786 367.907166,181.959717 351.829987,182.049271 
	C349.748749,182.060852 347.045959,182.034531 345.694122,183.228943 
	C337.280975,190.662537 329.170898,198.439117 320.586121,206.037048 
	C315.709503,204.591843 311.207062,203.211517 306.704620,201.831207 
z"/>
<path fill="#924595" opacity="1.000000" stroke="none" 
	d="
M401.000000,229.000000 
	C401.000000,235.687637 401.000000,242.375290 400.619385,249.540131 
	C397.537231,251.468948 394.447296,252.480072 392.207428,254.455215 
	C385.636902,260.249268 379.467987,266.496460 372.988251,272.397614 
	C371.619354,273.644287 369.597260,274.173767 367.542236,274.782898 
	C366.417267,269.024109 365.626129,263.516052 364.892365,257.651917 
	C364.356171,255.532150 363.762604,253.768524 363.490723,251.913208 
	C368.061218,248.195801 372.274231,244.527069 376.566895,240.954010 
	C383.732635,234.989502 389.611145,226.347916 401.000000,229.000000 
z"/>
<path fill="#F16B40" opacity="1.000000" stroke="none" 
	d="
M401.000000,130.562500 
	C373.677429,131.000534 346.353394,130.867844 319.034119,131.167816 
	C315.564148,131.205917 311.537048,132.753082 308.763214,134.891800 
	C296.785645,144.126831 285.199219,153.867981 273.408722,163.348160 
	C272.030975,164.455917 270.270752,165.087982 268.323669,165.966522 
	C268.876953,164.184692 269.794434,162.376968 271.002228,159.990692 
	C272.155762,158.278030 273.019012,157.143921 274.227295,155.930206 
	C276.009766,155.030045 277.595642,154.391434 278.860626,153.359467 
	C287.091614,146.644623 295.617767,140.231125 303.328186,132.956741 
	C310.212891,126.461349 317.316193,123.419792 327.160522,123.737961 
	C351.750824,124.532715 376.384003,124.000000 401.000000,124.000000 
	C401.000000,126.041664 401.000000,128.083328 401.000000,130.562500 
z"/>
<path fill="#ED5451" opacity="1.000000" stroke="none" 
	d="
M401.000000,102.000000 
	C401.000000,104.042320 401.000000,106.084633 400.531342,108.563309 
	C372.923126,108.999634 345.782257,108.871323 318.645721,109.157379 
	C315.143280,109.194290 311.260956,110.758446 308.265747,112.707794 
	C303.560455,115.770142 299.554749,119.885071 295.078979,123.328339 
	C289.851593,127.349861 284.437531,131.128754 279.072632,134.598892 
	C279.394928,131.795593 279.749115,129.406311 280.432312,126.926056 
	C286.639282,122.261803 292.901886,118.097878 298.305542,113.019928 
	C306.545258,105.276917 315.274078,101.241310 327.198090,101.710175 
	C351.764557,102.676186 376.395538,102.000305 401.000000,102.000000 
z"/>
<path fill="#F06545" opacity="1.000000" stroke="none" 
	d="
M401.000000,123.571533 
	C376.384003,124.000000 351.750824,124.532715 327.160522,123.737961 
	C317.316193,123.419792 310.212891,126.461349 303.328186,132.956741 
	C295.617767,140.231125 287.091614,146.644623 278.860626,153.359467 
	C277.595642,154.391434 276.009766,155.030045 274.045898,155.679688 
	C274.307739,153.004776 275.096008,150.500763 275.960083,147.716705 
	C276.329987,146.949738 276.624084,146.462845 277.259186,145.901306 
	C287.093842,138.358505 296.726135,131.057526 306.019196,123.347618 
	C310.291962,119.802773 314.507324,117.812202 320.299408,117.873856 
	C347.196991,118.160118 374.099365,118.000206 401.000000,118.000000 
	C401.000000,119.714355 401.000000,121.428719 401.000000,123.571533 
z"/>
<path fill="#F37936" opacity="1.000000" stroke="none" 
	d="
M1.000000,148.000000 
	C1.000000,145.299377 1.000000,142.598740 1.468657,139.449188 
	C31.570295,139.003830 61.203278,139.007385 90.931297,139.389801 
	C91.745308,142.529831 92.464279,145.291000 93.097275,148.029297 
	C93.011299,148.006454 92.840782,147.955627 92.382187,147.964508 
	C61.615726,147.982269 31.307863,147.991135 1.000000,148.000000 
z"/>
<path fill="#E93865" opacity="1.000000" stroke="none" 
	d="
M276.953094,103.003578 
	C284.685760,96.732025 292.229523,90.202110 300.256592,84.333191 
	C302.957825,82.358177 306.879944,81.167206 310.256348,81.139999 
	C340.190216,80.898758 370.126862,80.999718 400.531342,80.999832 
	C401.000000,82.714355 401.000000,84.428719 400.531342,86.571533 
	C373.086273,87.000000 346.102142,87.365601 319.137817,86.794655 
	C310.132507,86.603973 302.880096,88.808548 296.624512,94.990524 
	C295.795868,95.809425 295.013397,96.701340 294.081726,97.385376 
	C288.764984,101.288879 283.409485,105.139618 277.976135,108.636612 
	C277.574432,106.511139 277.263763,104.757355 276.953094,103.003578 
z"/>
<path fill="#C83579" opacity="1.000000" stroke="none" 
	d="
M152.000610,24.000130 
	C149.387192,23.666874 146.774139,23.046234 144.160324,23.043005 
	C96.752708,22.984453 49.345001,23.000233 1.468657,23.000082 
	C1.000000,21.611111 1.000000,20.222221 1.468657,18.416691 
	C53.058632,18.000111 104.180008,17.975159 155.301086,18.084356 
	C157.532150,18.089123 159.760590,19.324379 161.677216,20.142120 
	C158.242981,21.531904 155.121796,22.766018 152.000610,24.000130 
z"/>
<path fill="#C1377C" opacity="1.000000" stroke="none" 
	d="
M161.990250,19.986452 
	C159.760590,19.324379 157.532150,18.089123 155.301086,18.084356 
	C104.180008,17.975159 53.058632,18.000111 1.468657,18.000023 
	C1.000000,16.933331 1.000000,15.866661 1.000000,14.399996 
	C59.690464,14.010627 118.380928,14.021255 177.370667,14.400751 
	C172.443375,16.508566 167.216812,18.247509 161.990250,19.986452 
z"/>
<path fill="#A8428F" opacity="1.000000" stroke="none" 
	d="
M401.000000,198.555832 
	C393.041718,199.000198 385.039703,199.515640 377.138336,198.845169 
	C370.240662,198.259872 365.482880,201.220322 360.900238,205.564636 
	C355.497375,210.686523 349.947205,215.653000 343.925537,220.768097 
	C342.819031,220.472198 342.247894,220.095047 341.450958,219.447739 
	C339.137604,217.492081 337.050049,215.806564 335.138611,213.829010 
	C341.528473,207.803192 348.117889,202.416214 353.834381,196.223419 
	C358.226929,191.464844 363.203583,190.795853 369.059540,190.930542 
	C379.701263,191.175293 390.352661,191.000000 401.000000,191.000000 
	C401.000000,193.370560 401.000000,195.741104 401.000000,198.555832 
z"/>
<path fill="#F5862D" opacity="1.000000" stroke="none" 
	d="
M245.160873,205.010239 
	C249.282333,202.327011 253.693832,199.997742 257.475098,196.899323 
	C273.939056,183.408432 290.135162,169.589355 306.674561,156.193268 
	C308.725433,154.532135 312.243835,154.104843 315.087372,154.089920 
	C343.411865,153.941376 371.737427,153.999710 400.531342,153.999817 
	C401.000000,155.388885 401.000000,156.777786 401.000000,158.583344 
	C374.563873,159.000198 348.120575,159.353394 321.695251,158.819717 
	C311.700378,158.617889 303.892822,161.642700 296.405334,168.005203 
	C280.096375,181.863739 263.327698,195.181839 246.709412,208.674637 
	C245.576187,209.594742 244.131424,210.131165 242.483704,210.587555 
	C242.790909,208.912766 243.445923,207.496460 244.325409,205.954803 
	C244.753540,205.556366 244.957199,205.283310 245.160873,205.010239 
z"/>
<path fill="#984493" opacity="1.000000" stroke="none" 
	d="
M401.000000,228.536819 
	C389.611145,226.347916 383.732635,234.989502 376.566895,240.954010 
	C372.274231,244.527069 368.061218,248.195801 363.413757,251.584015 
	C362.385132,250.216766 361.755127,249.087051 361.064880,247.585358 
	C359.717621,244.287445 358.430573,241.361542 357.143524,238.435638 
	C363.197113,233.354614 369.778412,228.769440 375.152374,223.049835 
	C380.285400,217.586716 385.770264,215.023987 393.113617,215.954422 
	C395.395691,216.243561 397.745300,215.999557 400.531982,215.999817 
	C401.000000,220.024551 401.000000,224.049088 401.000000,228.536819 
z"/>
<path fill="#EC4C56" opacity="1.000000" stroke="none" 
	d="
M401.000000,101.583336 
	C376.395538,102.000305 351.764557,102.676186 327.198090,101.710175 
	C315.274078,101.241310 306.545258,105.276917 298.305542,113.019928 
	C292.901886,118.097878 286.639282,122.261803 280.397217,126.548477 
	C279.989746,125.505623 279.946411,124.749352 279.929932,123.594894 
	C279.953827,122.132637 279.950806,121.068581 280.286316,119.923248 
	C288.073517,114.056885 295.803040,108.590782 302.869232,102.371078 
	C307.346802,98.429871 312.062653,96.937485 317.800812,96.957268 
	C345.533600,97.052895 373.266876,97.000137 401.000000,97.000000 
	C401.000000,98.388893 401.000000,99.777779 401.000000,101.583336 
z"/>
<path fill="#EB465B" opacity="1.000000" stroke="none" 
	d="
M401.000000,96.583336 
	C373.266876,97.000137 345.533600,97.052895 317.800812,96.957268 
	C312.062653,96.937485 307.346802,98.429871 302.869232,102.371078 
	C295.803040,108.590782 288.073517,114.056885 280.080811,119.625008 
	C279.680939,117.273552 279.825043,115.139053 280.305481,112.923080 
	C287.010529,107.818901 293.333435,102.736626 299.763275,97.793373 
	C304.446808,94.192680 309.495209,91.878082 315.739075,91.918823 
	C344.158356,92.104263 372.579529,92.000046 401.000000,92.000000 
	C401.000000,93.388893 401.000000,94.777779 401.000000,96.583336 
z"/>
<path fill="#F5862D" opacity="1.000000" stroke="none" 
	d="
M96.111633,159.953400 
	C93.155411,160.302048 90.199982,160.945602 87.242844,160.953568 
	C58.807831,161.030197 30.372532,160.999695 1.468657,160.999939 
	C1.000000,158.958328 1.000000,156.916672 1.468657,154.437500 
	C32.664474,153.988602 63.391632,153.977219 94.366325,154.217468 
	C95.113121,156.297195 95.612381,158.125305 96.111633,159.953400 
z"/>
<path fill="#F2733A" opacity="1.000000" stroke="none" 
	d="
M90.836258,139.010941 
	C61.203278,139.007385 31.570295,139.003830 1.468657,139.000122 
	C1.000000,136.958328 1.000000,134.916672 1.468657,132.437759 
	C31.326096,131.990067 60.714878,131.979614 90.340858,132.253662 
	C90.772171,134.021118 90.966278,135.504044 91.102280,137.323730 
	C90.974854,138.110626 90.905556,138.560791 90.836258,139.010941 
z"/>
<path fill="#F16B40" opacity="1.000000" stroke="none" 
	d="
M90.103661,131.969177 
	C60.714878,131.979614 31.326096,131.990067 1.468657,132.000259 
	C1.000000,129.958328 1.000000,127.916664 1.468657,125.437500 
	C31.242174,125.005020 60.547031,125.010040 89.926117,125.259377 
	C90.048180,125.667000 90.096001,125.830299 90.100121,126.419266 
	C90.072159,128.553009 90.087914,130.261093 90.103661,131.969177 
z"/>
<path fill="#8B4697" opacity="1.000000" stroke="none" 
	d="
M367.876129,275.033691 
	C369.597260,274.173767 371.619354,273.644287 372.988251,272.397614 
	C379.467987,266.496460 385.636902,260.249268 392.207428,254.455215 
	C394.447296,252.480072 397.537231,251.468948 400.619385,250.008667 
	C401.000000,255.354935 401.000000,260.709869 400.641052,266.561066 
	C398.869263,267.857880 397.253296,268.434021 396.078400,269.497437 
	C390.777069,274.295776 385.766571,279.426880 380.328308,284.058868 
	C375.743469,287.963928 370.714111,291.347137 365.928131,294.526184 
	C366.608551,287.738617 367.242340,281.386139 367.876129,275.033691 
z"/>
<path fill="#A8428F" opacity="1.000000" stroke="none" 
	d="
M1.000000,203.000000 
	C1.000000,197.645065 1.000000,192.290146 1.468657,186.467804 
	C14.538097,186.000534 27.139221,185.954269 39.739326,186.046768 
	C41.829502,186.062103 43.915234,186.683212 45.768059,187.255096 
	C40.015057,192.651260 34.497017,197.816711 28.741497,202.988846 
	C28.504019,202.995514 28.029099,203.010132 27.558624,203.007812 
	C18.392099,203.003662 9.696050,203.001831 1.000000,203.000000 
z"/>
<path fill="#EA3F60" opacity="1.000000" stroke="none" 
	d="
M401.000000,91.583336 
	C372.579529,92.000046 344.158356,92.104263 315.739075,91.918823 
	C309.495209,91.878082 304.446808,94.192680 299.763275,97.793373 
	C293.333435,102.736626 287.010529,107.818901 280.097290,112.738037 
	C279.052887,112.087059 278.552917,111.539650 278.046387,110.661514 
	C278.048920,109.889961 278.058044,109.449135 278.067169,109.008301 
	C283.409485,105.139618 288.764984,101.288879 294.081726,97.385376 
	C295.013397,96.701340 295.795868,95.809425 296.624512,94.990524 
	C302.880096,88.808548 310.132507,86.603973 319.137817,86.794655 
	C346.102142,87.365601 373.086273,87.000000 400.531342,87.000000 
	C401.000000,88.388893 401.000000,89.777779 401.000000,91.583336 
z"/>
<path fill="#B3408C" opacity="1.000000" stroke="none" 
	d="
M46.003017,187.024384 
	C43.915234,186.683212 41.829502,186.062103 39.739326,186.046768 
	C27.139221,185.954269 14.538097,186.000534 1.468657,186.000183 
	C1.000000,182.638718 1.000000,179.277420 1.468657,175.458130 
	C19.905489,175.000412 37.874218,174.935623 55.841072,175.089890 
	C57.901215,175.107574 59.950851,176.348801 61.759541,177.254562 
	C56.671196,180.651917 51.828671,183.817444 46.740326,186.992371 
	C46.494503,187.001785 46.003017,187.024384 46.003017,187.024384 
z"/>
<path fill="#EE5A4D" opacity="1.000000" stroke="none" 
	d="
M279.104462,135.012909 
	C284.437531,131.128754 289.851593,127.349861 295.078979,123.328339 
	C299.554749,119.885071 303.560455,115.770142 308.265747,112.707794 
	C311.260956,110.758446 315.143280,109.194290 318.645721,109.157379 
	C345.782257,108.871323 372.923126,108.999634 400.531342,108.999832 
	C401.000000,110.388893 401.000000,111.777779 400.531342,113.583206 
	C372.606720,113.999931 345.150360,113.933525 317.695404,114.101181 
	C314.884644,114.118347 311.665741,114.910774 309.365417,116.440201 
	C304.964111,119.366516 301.149475,123.160530 296.978729,126.451714 
	C290.744873,131.370911 284.413635,136.166702 278.087708,140.618195 
	C278.057159,139.162003 278.062775,138.102600 278.268890,136.833801 
	C278.681091,136.087219 278.892761,135.550079 279.104462,135.012909 
z"/>
<path fill="#AC418E" opacity="1.000000" stroke="none" 
	d="
M401.000000,190.571533 
	C390.352661,191.000000 379.701263,191.175293 369.059540,190.930542 
	C363.203583,190.795853 358.226929,191.464844 353.834381,196.223419 
	C348.117889,202.416214 341.528473,207.803192 334.829437,213.674973 
	C331.883118,212.251617 329.422058,210.690247 327.136047,208.837189 
	C334.027618,202.152435 340.750305,195.765869 347.458221,189.363800 
	C351.175140,185.816330 355.551056,184.806900 360.662598,184.909225 
	C374.103607,185.178314 387.553589,185.000061 401.000000,185.000000 
	C401.000000,186.714355 401.000000,188.428711 401.000000,190.571533 
z"/>
<path fill="#E93865" opacity="1.000000" stroke="none" 
	d="
M1.000000,82.428467 
	C30.627123,81.999825 60.254272,81.983093 89.881325,82.029755 
	C92.350471,82.033638 94.818939,82.465225 97.639404,83.200363 
	C97.349930,85.138756 96.708778,86.574898 95.594727,88.008835 
	C63.747883,88.004425 32.373943,88.002213 1.000000,88.000000 
	C1.000000,86.285645 1.000000,84.571281 1.000000,82.428467 
z"/>
<path fill="#F48031" opacity="1.000000" stroke="none" 
	d="
M94.118790,153.965836 
	C63.391632,153.977219 32.664474,153.988602 1.468657,154.000000 
	C1.000000,152.285645 1.000000,150.571289 1.000000,148.428467 
	C31.307863,147.991135 61.615726,147.982269 92.439774,148.347900 
	C93.343567,150.470200 93.731178,152.218018 94.118790,153.965836 
z"/>
<path fill="#EC4C56" opacity="1.000000" stroke="none" 
	d="
M1.000000,104.000000 
	C1.000000,102.285622 1.000000,100.571251 1.468657,98.428490 
	C30.045301,98.000183 58.153351,97.975914 86.261162,98.046410 
	C88.518356,98.052063 90.773918,98.710144 93.016518,99.431992 
	C92.627037,101.202690 92.251266,102.606430 91.414650,104.007812 
	C60.969196,104.003632 30.984598,104.001816 1.000000,104.000000 
z"/>
<path fill="#EE5A4D" opacity="1.000000" stroke="none" 
	d="
M1.000000,115.000000 
	C1.000000,113.285622 1.000000,111.571251 1.468657,109.428619 
	C31.651846,109.003914 61.366379,109.007462 91.054970,109.438873 
	C90.974564,111.581741 90.920090,113.296738 90.405388,115.009140 
	C60.296772,115.004349 30.648386,115.002174 1.000000,115.000000 
z"/>
<path fill="#F06545" opacity="1.000000" stroke="none" 
	d="
M89.851891,125.015060 
	C60.547031,125.010040 31.242174,125.005020 1.468657,125.000000 
	C1.000000,123.285645 1.000000,121.571281 1.468657,119.428635 
	C31.241346,119.003853 60.545380,119.007347 89.891342,119.438049 
	C89.906136,121.581856 89.879013,123.298462 89.851891,125.015060 
z"/>
<path fill="#EF5F49" opacity="1.000000" stroke="none" 
	d="
M278.123840,141.014984 
	C284.413635,136.166702 290.744873,131.370911 296.978729,126.451714 
	C301.149475,123.160530 304.964111,119.366516 309.365417,116.440201 
	C311.665741,114.910774 314.884644,114.118347 317.695404,114.101181 
	C345.150360,113.933525 372.606720,113.999931 400.531342,113.999863 
	C401.000000,115.066673 401.000000,116.133339 401.000000,117.600006 
	C374.099365,118.000206 347.196991,118.160118 320.299408,117.873856 
	C314.507324,117.812202 310.291962,119.802773 306.019196,123.347618 
	C296.726135,131.057526 287.093842,138.358505 277.286163,145.531738 
	C277.356049,143.829529 277.739929,142.422256 278.123840,141.014984 
z"/>
<path fill="#EA3F60" opacity="1.000000" stroke="none" 
	d="
M1.000000,88.416664 
	C32.373943,88.002213 63.747883,88.004425 95.559319,88.350677 
	C95.701164,89.793564 95.405510,90.892410 95.055222,92.245834 
	C94.964165,92.670151 94.927757,92.839874 94.429497,93.007614 
	C62.978436,93.003746 31.989218,93.001869 1.000000,93.000000 
	C1.000000,91.611107 1.000000,90.222221 1.000000,88.416664 
z"/>
<path fill="#864798" opacity="1.000000" stroke="none" 
	d="
M365.881531,294.961334 
	C370.714111,291.347137 375.743469,287.963928 380.328308,284.058868 
	C385.766571,279.426880 390.777069,274.295776 396.078400,269.497437 
	C397.253296,268.434021 398.869263,267.857880 400.641052,267.028687 
	C401.000000,270.361298 401.000000,273.722565 401.000000,277.541931 
	C397.469177,280.701630 393.736298,283.179291 390.446075,286.147614 
	C381.196106,294.492523 372.154175,303.067688 362.956757,311.471680 
	C361.786285,312.541199 360.179169,313.132874 358.530273,313.681305 
	C358.536377,312.614349 358.786530,311.811981 359.262085,310.776306 
	C360.298645,308.998169 361.109772,307.453369 362.089417,305.574646 
	C363.465759,301.814270 364.673645,298.387817 365.881531,294.961334 
z"/>
<path fill="#EB465B" opacity="1.000000" stroke="none" 
	d="
M1.000000,93.416664 
	C31.989218,93.001869 62.978436,93.003746 94.397141,93.365021 
	C94.227829,95.504631 93.629028,97.284836 93.030235,99.065041 
	C90.773918,98.710144 88.518356,98.052063 86.261162,98.046410 
	C58.153351,97.975914 30.045301,98.000183 1.468657,98.000053 
	C1.000000,96.611107 1.000000,95.222221 1.000000,93.416664 
z"/>
<path fill="#ED5451" opacity="1.000000" stroke="none" 
	d="
M91.080910,109.011002 
	C61.366379,109.007462 31.651846,109.003914 1.468657,109.000183 
	C1.000000,107.611107 1.000000,106.222221 1.000000,104.416664 
	C30.984598,104.001816 60.969196,104.003632 91.459076,104.336380 
	C92.017982,105.105827 92.071617,105.544350 92.079582,106.309013 
	C91.716248,107.427101 91.398575,108.219055 91.080910,109.011002 
z"/>
<path fill="#B93F8B" opacity="1.000000" stroke="none" 
	d="
M62.005360,177.022720 
	C59.950851,176.348801 57.901215,175.107574 55.841072,175.089890 
	C37.874218,174.935623 19.905489,175.000412 1.468657,175.000061 
	C1.000000,173.285645 1.000000,171.571289 1.000000,169.428467 
	C28.002640,169.024445 55.005280,169.048889 82.167511,169.303802 
	C77.219574,171.366394 72.112045,173.198517 66.697495,175.168945 
	C64.928772,175.879089 63.467068,176.450897 62.005360,177.022720 
z"/>
<path fill="#A14391" opacity="1.000000" stroke="none" 
	d="
M1.000000,203.468277 
	C9.696050,203.001831 18.392099,203.003662 27.471981,203.341339 
	C23.564835,210.112381 19.273851,216.547577 14.749205,222.990326 
	C14.515539,222.997879 14.048214,223.013184 13.662880,222.857147 
	C9.185030,222.467407 5.092515,222.233704 1.000000,222.000000 
	C1.000000,215.978851 1.000000,209.957703 1.000000,203.468277 
z"/>
<path fill="#AE418E" opacity="1.000000" stroke="none" 
	d="
M401.000000,184.625000 
	C387.553589,185.000061 374.103607,185.178314 360.662598,184.909225 
	C355.551056,184.806900 351.175140,185.816330 347.458221,189.363800 
	C340.750305,195.765869 334.027618,202.152435 326.817810,208.677185 
	C324.567780,208.171173 322.811096,207.533432 321.032776,206.697037 
	C321.011139,206.498367 320.960297,206.101944 320.960297,206.101944 
	C329.170898,198.439117 337.280975,190.662537 345.694122,183.228943 
	C347.045959,182.034531 349.748749,182.060852 351.829987,182.049271 
	C367.907166,181.959717 383.985016,181.999786 400.531342,181.999847 
	C401.000000,182.750000 401.000000,183.500000 401.000000,184.625000 
z"/>
<path fill="#EF5F49" opacity="1.000000" stroke="none" 
	d="
M89.849411,119.010841 
	C60.545380,119.007347 31.241346,119.003853 1.468657,119.000175 
	C1.000000,117.933327 1.000000,116.866661 1.000000,115.399994 
	C30.648386,115.002174 60.296772,115.004349 90.476166,115.253281 
	C91.051720,115.663460 91.096252,115.826881 90.981247,116.280426 
	C90.497612,117.383965 90.173508,118.197403 89.849411,119.010841 
z"/>
<path fill="#984493" opacity="1.000000" stroke="none" 
	d="
M1.000000,222.467941 
	C5.092515,222.233704 9.185030,222.467407 13.577792,223.207916 
	C11.576602,229.472260 9.275166,235.229767 6.744323,240.994965 
	C6.514916,241.002655 6.056051,241.016373 5.694798,240.940826 
	C3.889029,240.576859 2.444513,240.288437 0.999999,240.000000 
	C1.000000,234.311966 1.000000,228.623917 1.000000,222.467941 
z"/>
<path fill="#7C489B" opacity="1.000000" stroke="none" 
	d="
M1.000001,294.468658 
	C3.965161,303.745850 6.930320,313.491730 9.977287,323.598694 
	C7.325807,324.306519 4.592517,324.653259 1.429614,325.000000 
	C1.000000,314.979095 1.000000,304.958221 1.000001,294.468658 
z"/>
<path fill="#924595" opacity="1.000000" stroke="none" 
	d="
M0.999999,240.468536 
	C2.444513,240.288437 3.889029,240.576859 5.650067,241.328674 
	C4.670218,247.530106 3.373846,253.268158 2.077475,259.006195 
	C1.850342,259.531067 1.623208,260.055969 1.198037,260.790405 
	C1.000000,254.312363 1.000000,247.624710 0.999999,240.468536 
z"/>
<path fill="#A42481" opacity="1.000000" stroke="none" 
	d="
M6.973727,240.987274 
	C9.275166,235.229767 11.576602,229.472260 13.963126,223.363968 
	C14.048214,223.013184 14.515539,222.997879 14.984612,223.241394 
	C20.828247,235.107468 26.516129,246.599701 31.429232,258.414154 
	C33.509041,263.415405 36.216785,265.121460 41.495880,265.096313 
	C78.973938,264.917816 116.453262,265.005310 154.078979,265.279633 
	C154.809448,266.385742 155.393143,267.220306 156.134079,268.360931 
	C158.846359,272.785889 161.401382,276.904724 164.036804,281.371765 
	C167.377792,287.201202 170.638412,292.682465 173.997330,298.496826 
	C176.721741,303.560059 179.347855,308.290222 182.130295,313.325867 
	C183.191086,315.738556 184.095535,317.845703 184.558823,319.963135 
	C179.029663,319.181183 175.176987,320.763794 172.785858,325.567261 
	C172.146576,326.851440 170.931534,327.849030 169.710388,329.150879 
	C167.961044,330.555603 166.482101,331.787628 164.648224,332.807465 
	C163.322220,332.403351 162.351349,332.044678 161.380096,332.043732 
	C128.744522,332.011688 96.108917,332.027496 63.473351,331.993408 
	C59.373360,331.989105 58.483372,333.643616 60.129814,337.287994 
	C64.033493,345.928680 67.901794,354.587646 71.616096,363.310883 
	C74.537491,370.171997 77.207359,377.140259 79.988953,384.060913 
	C79.246262,384.032043 78.503563,384.003204 77.390030,383.954224 
	C74.890831,383.030365 72.762489,382.126678 70.285522,380.691711 
	C67.141609,373.429535 64.475822,366.641449 61.529633,359.977295 
	C44.546356,321.561859 27.513760,283.168152 10.405702,244.808167 
	C9.742126,243.320282 8.139034,242.251404 6.973727,240.987274 
z"/>
<path fill="#A62480" opacity="1.000000" stroke="none" 
	d="
M80.286041,384.277954 
	C77.207359,377.140259 74.537491,370.171997 71.616096,363.310883 
	C67.901794,354.587646 64.033493,345.928680 60.129814,337.287994 
	C58.483372,333.643616 59.373360,331.989105 63.473351,331.993408 
	C96.108917,332.027496 128.744522,332.011688 161.380096,332.043732 
	C162.351349,332.044678 163.322220,332.403351 164.471802,333.085876 
	C162.429688,335.713440 160.209030,337.850403 157.701126,340.166138 
	C152.956604,342.573730 148.499359,344.802612 143.631531,346.938904 
	C140.750977,346.564362 138.282043,346.049561 135.810822,346.038147 
	C119.813026,345.964294 103.814728,345.997528 87.816597,346.000854 
	C75.807053,346.003357 75.648628,346.572693 80.728096,357.644501 
	C85.156006,367.296082 88.925461,377.249756 92.985855,387.069946 
	C88.851608,386.211609 84.717361,385.353302 80.286041,384.277954 
z"/>
<path fill="#B0267D" opacity="1.000000" stroke="none" 
	d="
M273.906464,388.970032 
	C220.918884,388.959503 167.931305,388.948975 114.442719,388.549408 
	C109.996613,378.849792 106.095253,369.520355 102.085587,360.237671 
	C100.407097,356.351868 101.213615,354.011963 105.729340,353.953400 
	C112.151482,353.870087 118.576080,353.975311 124.933731,354.347290 
	C125.377777,357.392181 125.505379,360.237213 126.477158,362.756683 
	C128.507553,368.020752 131.061905,373.079865 133.256393,378.284149 
	C135.977737,384.737976 137.721848,385.991455 144.970276,385.993988 
	C180.564392,386.006378 216.158554,386.017761 251.752563,385.954102 
	C253.842377,385.950378 255.931030,385.287048 258.425873,384.956421 
	C262.561615,385.619049 266.291687,386.255951 270.308350,387.039917 
	C271.698761,387.781342 272.802612,388.375671 273.906464,388.970032 
z"/>
<path fill="#A9257F" opacity="1.000000" stroke="none" 
	d="
M124.999626,354.000000 
	C118.576080,353.975311 112.151482,353.870087 105.729340,353.953400 
	C101.213615,354.011963 100.407097,356.351868 102.085587,360.237671 
	C106.095253,369.520355 109.996613,378.849792 113.975281,388.523346 
	C107.201988,388.434937 100.395142,387.983521 93.287064,387.301025 
	C88.925461,377.249756 85.156006,367.296082 80.728096,357.644501 
	C75.648628,346.572693 75.807053,346.003357 87.816597,346.000854 
	C103.814728,345.997528 119.813026,345.964294 135.810822,346.038147 
	C138.282043,346.049561 140.750977,346.564362 143.499329,347.183899 
	C143.516068,348.013184 143.254440,348.504974 142.624420,349.074585 
	C136.503891,350.768280 130.751755,352.384125 124.999626,354.000000 
z"/>
<path fill="#864798" opacity="1.000000" stroke="none" 
	d="
M274.343903,388.977417 
	C272.802612,388.375671 271.698761,387.781342 270.389526,386.718994 
	C275.130157,381.162537 279.980835,375.976776 285.047150,371.010956 
	C290.933624,365.241180 297.009216,359.664276 303.332703,353.862488 
	C305.441803,353.149078 307.220917,352.576904 309.398376,351.992920 
	C312.863464,351.317993 315.930237,350.654877 318.996979,349.991760 
	C317.908447,351.719940 317.119629,353.763885 315.684082,355.126526 
	C303.932526,366.281067 292.060516,377.308716 280.112244,388.686829 
	C278.260071,388.994110 276.520721,388.989441 274.343903,388.977417 
z"/>
<path fill="#BF377D" opacity="1.000000" stroke="none" 
	d="
M91.140778,115.990311 
	C91.096252,115.826881 91.051720,115.663460 90.936401,115.255890 
	C90.920090,113.296738 90.974564,111.581741 91.054970,109.438873 
	C91.398575,108.219055 91.716248,107.427101 92.401711,106.224197 
	C93.611046,105.292587 94.523964,104.859261 95.283630,104.238411 
	C111.856949,90.693634 128.385010,77.093353 144.980667,63.576046 
	C161.705261,49.953701 178.542816,36.469574 195.214661,22.783318 
	C198.735733,19.892799 201.752533,16.388000 205.001663,13.166236 
	C208.365509,13.121377 211.729355,13.076520 215.547180,13.099472 
	C210.715256,18.079857 205.591293,23.182367 200.105209,27.860157 
	C192.032761,34.743195 183.664444,41.278168 175.509613,48.066471 
	C173.650955,49.613670 172.149857,51.590389 170.484192,53.369423 
	C170.597946,53.909164 170.711716,54.448906 170.825485,54.988647 
	C191.582291,54.988647 212.339081,54.988647 233.569366,54.980988 
	C237.443451,56.269146 240.844055,57.564957 244.590881,58.939369 
	C248.062927,61.626633 251.188782,64.235298 254.646240,66.924377 
	C257.123779,69.551575 259.269714,72.098366 261.694855,74.823578 
	C261.974060,75.001991 262.012787,75.491417 261.638000,75.894943 
	C258.796295,76.532303 256.329559,76.966705 253.862335,76.969780 
	C218.425873,77.014008 182.988281,76.874138 147.554337,77.175476 
	C143.569611,77.209358 138.923431,78.758080 135.757065,81.154381 
	C125.441032,88.961533 115.755188,97.595131 105.649002,105.688629 
	C101.027153,109.390022 95.989731,112.572495 91.140778,115.990311 
z"/>
<path fill="#B83980" opacity="1.000000" stroke="none" 
	d="
M95.109863,91.991257 
	C95.405510,90.892410 95.701164,89.793564 96.032211,88.352875 
	C96.708778,86.574898 97.349930,85.138756 98.030991,83.354675 
	C100.247391,78.874847 102.423897,74.742981 104.753326,70.311493 
	C107.825806,65.531891 110.745354,61.051899 113.845428,56.285843 
	C117.901222,51.519905 121.776482,47.040035 125.832825,42.280224 
	C130.186066,38.823608 134.358231,35.646935 138.766449,32.237755 
	C143.203781,29.520536 147.405045,27.035816 151.803467,24.275616 
	C155.121796,22.766018 158.242981,21.531904 161.677216,20.142120 
	C167.216812,18.247509 172.443375,16.508566 177.835358,14.465906 
	C178.758957,14.117346 179.517136,14.072501 180.762299,14.162617 
	C181.249298,14.297576 181.626328,14.330234 181.626328,14.330234 
	C181.626328,14.330234 181.975616,14.168324 181.975616,14.168325 
	C184.706207,13.789540 187.436813,13.410754 190.550354,13.446533 
	C188.032394,16.685835 185.313370,19.730804 182.201981,22.300735 
	C155.504532,44.352192 128.756409,66.342575 101.947296,88.258072 
	C99.971329,89.873344 97.402870,90.763817 95.109863,91.991257 
z"/>
<path fill="#BB387E" opacity="1.000000" stroke="none" 
	d="
M95.055222,92.245834 
	C97.402870,90.763817 99.971329,89.873344 101.947296,88.258072 
	C128.756409,66.342575 155.504532,44.352192 182.201981,22.300735 
	C185.313370,19.730804 188.032394,16.685835 190.967056,13.513867 
	C195.360748,13.121298 199.720688,13.075957 204.541153,13.098427 
	C201.752533,16.388000 198.735733,19.892799 195.214661,22.783318 
	C178.542816,36.469574 161.705261,49.953701 144.980667,63.576046 
	C128.385010,77.093353 111.856949,90.693634 95.283630,104.238411 
	C94.523964,104.859261 93.611046,105.292587 92.447380,105.898056 
	C92.071617,105.544350 92.017982,105.105827 91.919930,104.338745 
	C92.251266,102.606430 92.627037,101.202690 93.016518,99.431992 
	C93.629028,97.284836 94.227829,95.504631 94.858978,93.367020 
	C94.927757,92.839874 94.964165,92.670151 95.055222,92.245834 
z"/>
<path fill="#C1377C" opacity="1.000000" stroke="none" 
	d="
M181.738373,14.115877 
	C181.975616,14.168324 181.626328,14.330234 181.626328,14.330234 
	C181.626328,14.330234 181.249298,14.297576 181.137482,14.230763 
	C181.025650,14.163951 181.501114,14.063431 181.738373,14.115877 
z"/>
<path fill="#C1377C" opacity="1.000000" stroke="none" 
	d="
M90.981247,116.280426 
	C95.989731,112.572495 101.027153,109.390022 105.649002,105.688629 
	C115.755188,97.595131 125.441032,88.961533 135.757065,81.154381 
	C138.923431,78.758080 143.569611,77.209358 147.554337,77.175476 
	C182.988281,76.874138 218.425873,77.014008 253.862335,76.969780 
	C256.329559,76.966705 258.796295,76.532303 261.653992,76.139900 
	C265.271149,80.784676 268.497528,85.588020 271.887299,90.699829 
	C272.361633,92.105125 272.672577,93.201958 272.620605,94.800201 
	C269.786224,95.534393 267.314972,95.967705 264.843292,95.970108 
	C222.179886,96.011574 179.516190,96.062462 136.853241,95.915207 
	C131.921432,95.898186 127.702469,96.898422 123.928307,100.038162 
	C115.365257,107.161774 106.825615,114.316734 98.127373,121.272522 
	C95.736603,123.184357 92.819450,124.437965 90.143829,125.993607 
	C90.096001,125.830299 90.048180,125.667000 89.926117,125.259377 
	C89.879013,123.298462 89.906136,121.581856 89.891335,119.438049 
	C90.173508,118.197403 90.497612,117.383965 90.981247,116.280426 
z"/>
<path fill="#A12481" opacity="1.000000" stroke="none" 
	d="
M6.744321,240.994965 
	C8.139034,242.251404 9.742126,243.320282 10.405702,244.808167 
	C27.513760,283.168152 44.546356,321.561859 61.529633,359.977295 
	C64.475822,366.641449 67.141609,373.429535 69.968643,380.532410 
	C64.147049,377.789307 58.293701,374.674194 52.215691,371.313843 
	C50.029640,365.466949 48.427742,359.707275 46.047165,354.289795 
	C32.881168,324.328094 19.543613,294.441681 6.192283,264.561890 
	C5.339339,262.653046 3.875853,261.016998 2.386932,259.130127 
	C3.373846,253.268158 4.670218,247.530106 6.011321,241.404221 
	C6.056051,241.016373 6.514916,241.002655 6.744321,240.994965 
z"/>
<path fill="#CC3477" opacity="1.000000" stroke="none" 
	d="
M94.366325,154.217468 
	C93.731178,152.218018 93.343567,150.470200 92.898376,148.339005 
	C92.840782,147.955627 93.011299,148.006454 93.416710,147.926102 
	C99.812584,143.133408 106.035515,138.683838 111.734398,133.641922 
	C118.781319,127.407356 125.942513,123.618835 136.120758,123.741592 
	C184.042252,124.319611 231.974594,123.995392 279.903076,123.993088 
	C279.946411,124.749352 279.989746,125.505623 280.068176,126.639458 
	C279.749115,129.406311 279.394928,131.795593 279.072632,134.598907 
	C278.892761,135.550079 278.681091,136.087219 277.877441,136.670746 
	C275.649841,136.479401 274.014343,136.035233 272.378540,136.033966 
	C225.416626,135.997604 178.454575,135.969757 131.492996,136.099915 
	C128.807968,136.107361 125.650764,136.800964 123.534470,138.319580 
	C117.604347,142.574860 112.012367,147.322906 106.474823,152.094543 
	C103.768799,154.426285 101.480293,157.242569 99.002815,159.839569 
	C98.280396,159.885864 97.557983,159.932159 96.473602,159.965927 
	C95.612381,158.125305 95.113121,156.297195 94.366325,154.217468 
z"/>
<path fill="#D03376" opacity="1.000000" stroke="none" 
	d="
M99.468399,159.892487 
	C101.480293,157.242569 103.768799,154.426285 106.474823,152.094543 
	C112.012367,147.322906 117.604347,142.574860 123.534470,138.319580 
	C125.650764,136.800964 128.807968,136.107361 131.492996,136.099915 
	C178.454575,135.969757 225.416626,135.997604 272.378540,136.033966 
	C274.014343,136.035233 275.649841,136.479401 277.676941,136.880173 
	C278.062775,138.102600 278.057159,139.162003 278.087677,140.618195 
	C277.739929,142.422256 277.356049,143.829529 276.945160,145.606384 
	C276.624084,146.462845 276.329987,146.949738 275.502441,147.717575 
	C228.544373,147.999023 182.119781,147.998428 135.695190,148.004044 
	C133.865677,148.004272 132.014618,147.895233 130.210571,148.126144 
	C123.977333,148.923965 118.062004,155.173065 118.990173,159.840073 
	C112.638107,159.875198 106.286041,159.910309 99.468399,159.892487 
z"/>
<path fill="#D43374" opacity="1.000000" stroke="none" 
	d="
M119.457184,159.892670 
	C118.062004,155.173065 123.977333,148.923965 130.210571,148.126144 
	C132.014618,147.895233 133.865677,148.004272 135.695190,148.004044 
	C182.119781,147.998428 228.544373,147.999023 275.426605,147.997650 
	C275.096008,150.500763 274.307739,153.004776 273.700867,155.759293 
	C273.019012,157.143921 272.155762,158.278030 271.145447,159.683105 
	C220.640335,159.951126 170.282272,159.948181 119.457184,159.892670 
z"/>
<path fill="#BD2879" opacity="1.000000" stroke="none" 
	d="
M67.004509,175.030624 
	C72.112045,173.198517 77.219574,171.366394 82.629013,169.357605 
	C84.005257,169.113342 85.079582,169.045761 86.704254,169.275528 
	C91.104996,178.348709 94.874443,187.161850 98.884003,195.864365 
	C99.566994,197.346725 101.208664,199.324554 102.526871,199.419769 
	C109.330009,199.911133 116.172035,199.864090 123.468719,200.004028 
	C129.958359,200.001709 135.979797,200.000244 142.469681,199.999023 
	C149.627731,199.994492 156.317307,199.989746 163.475128,199.987534 
	C173.631912,199.983673 183.320496,199.977295 193.477112,199.975769 
	C204.634979,199.970428 215.324783,199.960236 226.482147,199.959473 
	C233.912369,199.991013 240.875031,200.013138 247.837677,200.035263 
	C246.994919,201.488129 246.152176,202.941010 245.235153,204.702057 
	C244.957199,205.283310 244.753540,205.556366 243.850586,205.935013 
	C204.180328,206.027679 165.209335,206.001602 126.238403,206.044724 
	C124.473274,206.046677 122.708832,206.674271 120.481544,207.007446 
	C109.381935,206.999405 98.744591,207.035675 88.107903,206.968018 
	C84.146065,206.942825 80.365349,206.219788 78.552528,202.036179 
	C74.660027,193.053040 70.848930,184.034607 67.004509,175.030624 
z"/>
<path fill="#E62F6C" opacity="1.000000" stroke="none" 
	d="
M248.005814,199.730072 
	C240.875031,200.013138 233.912369,199.991013 226.447968,199.589279 
	C225.389130,197.652512 224.912949,196.060593 224.261719,194.543854 
	C220.195709,185.073547 216.090546,175.620071 211.998352,166.161011 
	C229.989929,166.115540 247.981506,166.070038 266.432617,166.046234 
	C265.285034,169.469620 263.677917,172.871307 261.994843,176.623352 
	C258.965485,181.741089 256.012054,186.508453 252.977539,191.620728 
	C251.322281,194.452057 249.748108,196.938461 248.005814,199.730072 
z"/>
<path fill="#DD2D6F" opacity="1.000000" stroke="none" 
	d="
M211.531708,166.113571 
	C216.090546,175.620071 220.195709,185.073547 224.261719,194.543854 
	C224.912949,196.060593 225.389130,197.652512 225.980408,199.579865 
	C215.324783,199.960236 204.634979,199.970428 193.397522,199.617249 
	C190.541534,193.785324 188.109238,188.364975 185.959854,182.834656 
	C183.823029,177.336624 181.970596,171.728058 179.993469,166.167969 
	C190.350662,166.134018 200.707870,166.100082 211.531708,166.113571 
z"/>
<path fill="#D52B72" opacity="1.000000" stroke="none" 
	d="
M179.527466,166.118530 
	C181.970596,171.728058 183.823029,177.336624 185.959854,182.834656 
	C188.109238,188.364975 190.541534,193.785324 192.929459,199.612396 
	C183.320496,199.977295 173.631912,199.983673 163.463928,199.597809 
	C162.419968,197.327789 162.000031,195.391418 161.266525,193.582169 
	C157.554306,184.425842 153.760620,175.302567 149.995483,166.167694 
	C159.684143,166.134827 169.372787,166.101959 179.527466,166.118530 
z"/>
<path fill="#CE2A74" opacity="1.000000" stroke="none" 
	d="
M149.529495,166.117188 
	C153.760620,175.302567 157.554306,184.425842 161.266525,193.582169 
	C162.000031,195.391418 162.419968,197.327789 162.995697,199.595276 
	C156.317307,199.989746 149.627731,199.994492 142.381485,199.653168 
	C137.213821,188.262512 132.602814,177.217911 127.991814,166.173325 
	C135.015717,166.137772 142.039612,166.102234 149.529495,166.117188 
z"/>
<path fill="#C12878" opacity="1.000000" stroke="none" 
	d="
M123.000496,200.004883 
	C116.172035,199.864090 109.330009,199.911133 102.526871,199.419769 
	C101.208664,199.324554 99.566994,197.346725 98.884003,195.864365 
	C94.874443,187.161850 91.104996,178.348709 87.106422,169.237823 
	C93.670746,167.959030 100.383247,167.015274 107.578262,166.487152 
	C113.040688,177.936813 118.020592,188.970840 123.000496,200.004883 
z"/>
<path fill="#C62976" opacity="1.000000" stroke="none" 
	d="
M123.468719,200.004028 
	C118.020592,188.970840 113.040688,177.936813 108.027145,166.539673 
	C114.349342,166.141235 120.705193,166.105927 127.526428,166.121979 
	C132.602814,177.217911 137.213821,188.262512 141.913025,199.652939 
	C135.979797,200.000244 129.958359,200.001709 123.468719,200.004028 
z"/>
<path fill="#A14391" opacity="1.000000" stroke="none" 
	d="
M347.031891,329.022919 
	C342.249390,333.297485 337.466919,337.572052 331.940430,341.839233 
	C329.563812,341.560059 327.931671,341.054840 326.298523,341.051453 
	C301.211151,340.999268 276.123108,340.935120 251.037109,341.124817 
	C248.395630,341.144775 245.136826,342.046234 243.241470,343.742310 
	C235.592239,350.587402 228.365280,357.904388 220.705475,364.871704 
	C218.596725,363.151703 216.764877,361.607086 214.656952,359.878204 
	C211.904114,356.798218 209.427353,353.902527 207.235779,350.831177 
	C213.725647,344.892090 220.132706,339.327423 226.060562,333.292114 
	C229.727982,329.558228 233.707626,327.928558 238.886353,327.945129 
	C272.655579,328.053345 306.425385,327.980896 340.194855,328.044464 
	C342.474487,328.048767 344.752899,328.682129 347.031891,329.022919 
z"/>
<path fill="#A8428F" opacity="1.000000" stroke="none" 
	d="
M347.310638,328.838806 
	C344.752899,328.682129 342.474487,328.048767 340.194855,328.044464 
	C306.425385,327.980896 272.655579,328.053345 238.886353,327.945129 
	C233.707626,327.928558 229.727982,329.558228 226.060562,333.292114 
	C220.132706,339.327423 213.725647,344.892090 206.956268,350.654541 
	C203.580887,347.103882 200.770203,343.554199 198.243866,339.828552 
	C204.849228,333.771393 211.340805,328.059753 217.424438,321.942444 
	C220.830994,318.517029 224.400421,316.904877 229.300949,316.921387 
	C271.549713,317.063568 313.799103,317.009979 356.048309,317.014771 
	C353.228668,320.894745 350.409027,324.774719 347.310638,328.838806 
z"/>
<path fill="#984493" opacity="1.000000" stroke="none" 
	d="
M220.982391,365.047150 
	C228.365280,357.904388 235.592239,350.587402 243.241470,343.742310 
	C245.136826,342.046234 248.395630,341.144775 251.037109,341.124817 
	C276.123108,340.935120 301.211151,340.999268 326.298523,341.051453 
	C327.931671,341.054840 329.563812,341.560059 331.606140,341.923187 
	C327.841766,344.518372 323.667664,347.022217 319.245270,349.758911 
	C315.930237,350.654877 312.863464,351.317993 309.213562,351.653442 
	C307.437134,350.888824 306.246643,350.081360 305.050171,350.072388 
	C293.413330,349.984924 281.749115,349.584900 270.151703,350.271118 
	C265.851257,350.525543 261.081573,352.610046 257.626770,355.282898 
	C251.222885,360.237366 245.586899,366.195190 239.734375,371.842163 
	C238.589844,372.946503 237.913818,374.536377 236.717712,375.757812 
	C233.292191,373.727264 230.170639,371.841248 226.820435,369.722595 
	C224.721985,368.009033 222.852203,366.528107 220.982391,365.047150 
z"/>
<path fill="#AC418E" opacity="1.000000" stroke="none" 
	d="
M356.261353,316.801575 
	C313.799103,317.009979 271.549713,317.063568 229.300949,316.921387 
	C224.400421,316.904877 220.830994,318.517029 217.424438,321.942444 
	C211.340805,328.059753 204.849228,333.771393 198.009659,339.595215 
	C196.314850,337.360992 195.138596,335.184235 194.246536,332.830566 
	C199.328049,328.296112 204.277771,324.092987 208.886398,319.544220 
	C215.546570,312.970642 222.804214,309.612549 232.735306,309.766022 
	C270.361511,310.347443 308.002106,309.966431 345.637146,310.044525 
	C350.104309,310.053772 354.570221,310.673126 359.036713,311.009644 
	C358.786530,311.811981 358.536377,312.614349 358.175598,313.712646 
	C357.534821,314.868500 357.004608,315.728424 356.261353,316.801575 
z"/>
<path fill="#C4367B" opacity="1.000000" stroke="none" 
	d="
M90.100121,126.419273 
	C92.819450,124.437965 95.736603,123.184357 98.127373,121.272522 
	C106.825615,114.316734 115.365257,107.161774 123.928307,100.038162 
	C127.702469,96.898422 131.921432,95.898186 136.853241,95.915207 
	C179.516190,96.062462 222.179886,96.011574 264.843292,95.970108 
	C267.314972,95.967705 269.786224,95.534393 272.647827,95.143982 
	C274.203278,97.476830 275.368622,99.967316 276.743530,102.730682 
	C277.263763,104.757355 277.574432,106.511139 277.976135,108.636612 
	C278.058044,109.449135 278.048920,109.889961 277.572083,110.663452 
	C230.499084,110.997406 183.891388,111.244362 137.290543,110.790207 
	C128.103928,110.700684 120.776520,112.940651 114.348473,119.183838 
	C111.970398,121.493523 109.404617,123.638611 106.755371,125.634323 
	C101.620369,129.502609 96.365555,133.211838 91.160393,136.986984 
	C90.966278,135.504044 90.772171,134.021118 90.340858,132.253677 
	C90.087914,130.261093 90.072159,128.553009 90.100121,126.419273 
z"/>
<path fill="#D73B83" opacity="1.000000" stroke="none" 
	d="
M120.944061,207.010468 
	C122.708832,206.674271 124.473274,206.046677 126.238403,206.044724 
	C165.209335,206.001602 204.180328,206.027679 243.626129,206.060364 
	C243.445923,207.496460 242.790909,208.912766 242.150650,210.670242 
	C238.881546,216.456024 235.597687,221.900620 232.108093,227.912582 
	C231.623138,228.689514 231.343933,228.899063 230.710815,228.882431 
	C229.725677,228.468521 229.094833,228.118240 228.463150,228.116760 
	C210.557037,228.075027 192.650314,228.005219 174.745438,228.152786 
	C172.933228,228.167694 170.754135,229.107147 169.388489,230.333679 
	C161.762161,237.183243 154.333878,244.253311 146.579742,251.022919 
	C143.563583,246.524338 140.805618,242.250885 137.960403,237.638153 
	C134.229279,230.869568 130.585388,224.440247 126.784180,217.710999 
	C124.732590,213.944214 122.838326,210.477341 120.944061,207.010468 
z"/>
<path fill="#F89522" opacity="1.000000" stroke="none" 
	d="
M231.064713,229.108627 
	C231.343933,228.899063 231.623138,228.689514 232.032867,228.249359 
	C236.764542,224.855377 241.625702,222.007706 245.919556,218.471222 
	C260.548889,206.422256 274.971405,194.122330 289.489471,181.937958 
	C292.654114,179.282013 295.661346,176.334076 299.162231,174.217026 
	C301.858551,172.586502 305.215088,172.047760 308.701477,171.031174 
	C305.307892,178.279861 301.490936,185.520950 297.059082,192.717682 
	C293.829041,193.201431 290.585999,192.919586 288.696777,194.384140 
	C271.631012,207.613724 254.852951,221.213577 237.873459,234.555847 
	C232.731659,238.596222 227.224579,242.171738 221.893341,245.717590 
	C221.901855,245.475021 221.820999,244.996399 221.989578,244.687561 
	C225.127014,239.288696 228.095871,234.198669 231.064713,229.108627 
z"/>
<path fill="#FDB60A" opacity="1.000000" stroke="none" 
	d="
M356.902527,238.253830 
	C358.430573,241.361542 359.717621,244.287445 360.588135,247.593597 
	C329.179382,247.982178 298.185364,247.830399 267.197083,248.182266 
	C262.859039,248.231537 257.939453,249.860962 254.353500,252.314606 
	C246.969299,257.367096 240.376663,263.562683 233.322845,269.115845 
	C226.687286,274.339722 219.877502,279.342255 212.903778,284.266541 
	C212.093338,283.098297 211.523483,282.105652 211.187134,280.868164 
	C225.434433,269.126099 239.697845,257.915924 253.369385,246.025238 
	C261.719299,238.762955 270.412567,235.285690 281.804291,235.744781 
	C303.597168,236.623032 325.450653,236.032089 347.278625,235.951721 
	C349.536163,235.943420 351.791290,235.265610 354.047516,234.898453 
	C354.918854,235.956314 355.790192,237.014160 356.902527,238.253830 
z"/>
<path fill="#FCAE10" opacity="1.000000" stroke="none" 
	d="
M341.676758,219.717896 
	C342.247894,220.095047 342.819031,220.472198 343.633881,220.943146 
	C345.523529,223.137314 347.169434,225.237686 348.569031,227.804077 
	C346.023987,228.513321 343.725830,228.962112 341.426514,228.967804 
	C319.635498,229.021683 297.842377,228.859222 276.055023,229.148483 
	C272.686462,229.193207 268.726837,230.412415 266.094696,232.450104 
	C253.628281,242.101013 241.569366,252.276291 229.280106,262.158844 
	C222.565735,267.558258 215.682053,272.747162 208.589294,277.836731 
	C207.918976,276.578827 207.534119,275.515198 207.535233,274.325867 
	C209.600464,273.143555 211.412720,272.250000 212.938477,271.005310 
	C228.754074,258.103363 244.780960,245.442352 260.209259,232.090561 
	C269.469635,224.076553 278.730011,218.806915 291.823303,219.703735 
	C308.363831,220.836685 325.052185,219.811935 341.676758,219.717896 
z"/>
<path fill="#FCB20D" opacity="1.000000" stroke="none" 
	d="
M208.874741,278.031006 
	C215.682053,272.747162 222.565735,267.558258 229.280106,262.158844 
	C241.569366,252.276291 253.628281,242.101013 266.094696,232.450104 
	C268.726837,230.412415 272.686462,229.193207 276.055023,229.148483 
	C297.842377,228.859222 319.635498,229.021683 341.426514,228.967804 
	C343.725830,228.962112 346.023987,228.513321 348.715332,228.109375 
	C350.731262,230.035538 352.354553,232.122421 354.012695,234.553879 
	C351.791290,235.265610 349.536163,235.943420 347.278625,235.951721 
	C325.450653,236.032089 303.597168,236.623032 281.804291,235.744781 
	C270.412567,235.285690 261.719299,238.762955 253.369385,246.025238 
	C239.697845,257.915924 225.434433,269.126099 210.913040,280.705780 
	C209.895187,279.869171 209.384964,278.950073 208.874741,278.031006 
z"/>
<path fill="#F9A119" opacity="1.000000" stroke="none" 
	d="
M221.884796,245.960144 
	C227.224579,242.171738 232.731659,238.596222 237.873459,234.555847 
	C254.852951,221.213577 271.631012,207.613724 288.696777,194.384140 
	C290.585999,192.919586 293.829041,193.201431 296.754761,192.884872 
	C296.159607,195.111359 295.253906,197.126312 294.193512,199.485336 
	C298.124023,200.268448 301.978577,201.036407 306.268890,201.817795 
	C311.207062,203.211517 315.709503,204.591843 320.586121,206.037048 
	C320.960297,206.101944 321.011139,206.498367 320.679962,206.922531 
	C318.382233,207.564590 316.417053,207.955246 314.448914,207.970657 
	C305.618774,208.039856 296.769073,207.671982 287.966461,208.169586 
	C284.554840,208.362427 280.639740,209.659653 277.993988,211.762344 
	C261.072845,225.210480 244.500351,239.096222 227.680145,252.673187 
	C222.287949,257.025665 216.492767,260.878876 210.942780,264.617432 
	C211.946320,262.517120 212.889023,260.759888 214.000031,258.690979 
	C216.740479,254.239609 219.312637,250.099869 221.884796,245.960144 
z"/>
<path fill="#FFC400" opacity="1.000000" stroke="none" 
	d="
M365.928131,294.526184 
	C364.673645,298.387817 363.465759,301.814270 361.628632,305.610107 
	C317.281281,305.986481 273.563080,305.950684 229.845352,306.079468 
	C226.243454,306.090057 223.491882,305.597595 222.055206,301.599792 
	C219.611267,297.152924 217.224808,293.064301 214.918854,289.001495 
	C214.999374,289.027344 215.167023,289.049561 215.431396,288.853088 
	C226.163589,280.226288 236.802887,271.996124 247.006409,263.257172 
	C250.585602,260.191742 254.102921,258.924011 258.680969,258.940613 
	C289.938538,259.053925 321.196747,259.036469 352.454498,258.956055 
	C356.582123,258.945435 360.708191,258.338684 364.834991,258.008026 
	C365.626129,263.516052 366.417267,269.024109 367.542236,274.782898 
	C367.242340,281.386139 366.608551,287.738617 365.928131,294.526184 
z"/>
<path fill="#FEBD05" opacity="1.000000" stroke="none" 
	d="
M364.892365,257.651917 
	C360.708191,258.338684 356.582123,258.945435 352.454498,258.956055 
	C321.196747,259.036469 289.938538,259.053925 258.680969,258.940613 
	C254.102921,258.924011 250.585602,260.191742 247.006409,263.257172 
	C236.802887,271.996124 226.163589,280.226288 215.270538,288.523132 
	C214.278336,287.073792 213.711349,285.757965 213.144348,284.442139 
	C219.877502,279.342255 226.687286,274.339722 233.322845,269.115845 
	C240.376663,263.562683 246.969299,257.367096 254.353500,252.314606 
	C257.939453,249.860962 262.859039,248.231537 267.197083,248.182266 
	C298.185364,247.830399 329.179382,247.982178 360.648346,247.965576 
	C361.755127,249.087051 362.385132,250.216766 363.092072,251.675690 
	C363.762604,253.768524 364.356171,255.532150 364.892365,257.651917 
z"/>
<path fill="#C83579" opacity="1.000000" stroke="none" 
	d="
M91.102280,137.323730 
	C96.365555,133.211838 101.620369,129.502609 106.755371,125.634323 
	C109.404617,123.638611 111.970398,121.493523 114.348473,119.183838 
	C120.776520,112.940651 128.103928,110.700684 137.290543,110.790207 
	C183.891388,111.244362 230.499084,110.997406 277.578674,110.994171 
	C278.552917,111.539650 279.052887,112.087059 279.760986,112.819511 
	C279.825043,115.139053 279.680939,117.273552 279.742310,119.706284 
	C279.950806,121.068581 279.953827,122.132637 279.929932,123.594894 
	C231.974594,123.995392 184.042252,124.319611 136.120758,123.741592 
	C125.942513,123.618835 118.781319,127.407356 111.734398,133.641922 
	C106.035515,138.683838 99.812584,143.133408 93.502686,147.948944 
	C92.464279,145.291000 91.745308,142.529831 90.931297,139.389801 
	C90.905556,138.560791 90.974854,138.110626 91.102280,137.323730 
z"/>
<path fill="#FBA913" opacity="1.000000" stroke="none" 
	d="
M210.881958,264.960510 
	C216.492767,260.878876 222.287949,257.025665 227.680145,252.673187 
	C244.500351,239.096222 261.072845,225.210480 277.993988,211.762344 
	C280.639740,209.659653 284.554840,208.362427 287.966461,208.169586 
	C296.769073,207.671982 305.618774,208.039856 314.448914,207.970657 
	C316.417053,207.955246 318.382233,207.564590 320.701599,207.121201 
	C322.811096,207.533432 324.567780,208.171173 326.642761,208.968903 
	C329.422058,210.690247 331.883118,212.251617 334.653320,213.967010 
	C337.050049,215.806564 339.137604,217.492081 341.450958,219.447754 
	C325.052185,219.811935 308.363831,220.836685 291.823303,219.703735 
	C278.730011,218.806915 269.469635,224.076553 260.209259,232.090561 
	C244.780960,245.442352 228.754074,258.103363 212.938477,271.005310 
	C211.412720,272.250000 209.600464,273.143555 207.360825,274.217346 
	C206.575745,274.070038 206.327209,273.958832 206.059601,273.546509 
	C207.670242,270.448151 209.276108,267.704315 210.881958,264.960510 
z"/>
<path fill="#A9257F" opacity="1.000000" stroke="none" 
	d="
M138.047638,237.977432 
	C140.805618,242.250885 143.563583,246.524338 146.646088,251.360687 
	C149.291138,256.285095 151.611664,260.646576 153.932190,265.008057 
	C116.453262,265.005310 78.973938,264.917816 41.495880,265.096313 
	C36.216785,265.121460 33.509041,263.415405 31.429232,258.414154 
	C26.516129,246.599701 20.828247,235.107468 15.218278,223.233856 
	C19.273851,216.547577 23.564835,210.112381 27.942457,203.343658 
	C28.029099,203.010132 28.504019,202.995514 29.022804,203.193359 
	C33.936436,212.837784 38.621632,222.164291 42.599091,231.783447 
	C44.483036,236.339661 46.956917,238.112854 51.864510,238.082642 
	C80.591347,237.905716 109.319756,237.984756 138.047638,237.977432 
z"/>
<path fill="#B0267D" opacity="1.000000" stroke="none" 
	d="
M137.960403,237.638153 
	C109.319756,237.984756 80.591347,237.905716 51.864510,238.082642 
	C46.956917,238.112854 44.483036,236.339661 42.599091,231.783447 
	C38.621632,222.164291 33.936436,212.837784 29.260281,203.186691 
	C34.497017,197.816711 40.015057,192.651260 45.768059,187.255096 
	C46.003017,187.024384 46.494503,187.001785 46.976585,187.250153 
	C51.217472,195.820953 55.079716,204.098877 58.690430,212.485092 
	C60.435188,216.537460 63.082985,218.121658 67.557999,218.080139 
	C87.351006,217.896408 107.146744,218.006927 126.941498,218.010925 
	C130.585388,224.440247 134.229279,230.869568 137.960403,237.638153 
z"/>
<path fill="#B7277B" opacity="1.000000" stroke="none" 
	d="
M126.784180,217.710999 
	C107.146744,218.006927 87.351006,217.896408 67.557999,218.080139 
	C63.082985,218.121658 60.435188,216.537460 58.690430,212.485092 
	C55.079716,204.098877 51.217472,195.820953 47.222412,187.240723 
	C51.828671,183.817444 56.671196,180.651917 61.759541,177.254562 
	C63.467068,176.450897 64.928772,175.879089 66.697495,175.168945 
	C70.848930,184.034607 74.660027,193.053040 78.552528,202.036179 
	C80.365349,206.219788 84.146065,206.942825 88.107903,206.968018 
	C98.744591,207.035675 109.381935,206.999405 120.481537,207.007446 
	C122.838326,210.477341 124.732590,213.944214 126.784180,217.710999 
z"/>
<path fill="#AE418E" opacity="1.000000" stroke="none" 
	d="
M222.112686,301.958008 
	C223.491882,305.597595 226.243454,306.090057 229.845352,306.079468 
	C273.563080,305.950684 317.281281,305.986481 361.460144,305.944031 
	C361.109772,307.453369 360.298645,308.998169 359.262085,310.776306 
	C354.570221,310.673126 350.104309,310.053772 345.637146,310.044525 
	C308.002106,309.966431 270.361511,310.347443 232.735306,309.766022 
	C222.804214,309.612549 215.546570,312.970642 208.886398,319.544220 
	C204.277771,324.092987 199.328049,328.296112 193.974487,332.637817 
	C191.934555,330.085663 190.450851,327.549408 189.252106,324.834198 
	C194.335724,320.293671 198.932358,315.679321 203.988098,311.639526 
	C209.381027,307.330322 213.554276,300.436951 222.112686,301.958008 
z"/>
<path fill="#CF3C85" opacity="1.000000" stroke="none" 
	d="
M154.078979,265.279633 
	C151.611664,260.646576 149.291138,256.285095 146.904266,251.585815 
	C154.333878,244.253311 161.762161,237.183243 169.388489,230.333679 
	C170.754135,229.107147 172.933228,228.167694 174.745438,228.152786 
	C192.650314,228.005219 210.557037,228.075027 228.463150,228.116760 
	C229.094833,228.118240 229.725677,228.468521 230.710815,228.882431 
	C228.095871,234.198669 225.127014,239.288696 221.594971,244.593262 
	C208.778656,244.617111 196.525497,244.338837 184.272354,244.339340 
	C182.617432,244.339401 180.649323,245.391449 179.358902,246.549820 
	C171.479416,253.622955 163.753784,260.867462 155.976837,268.054840 
	C155.393143,267.220306 154.809448,266.385742 154.078979,265.279633 
z"/>
<path fill="#C83D87" opacity="1.000000" stroke="none" 
	d="
M156.134079,268.360931 
	C163.753784,260.867462 171.479416,253.622955 179.358902,246.549820 
	C180.649323,245.391449 182.617432,244.339401 184.272354,244.339340 
	C196.525497,244.338837 208.778656,244.617111 221.426392,244.902100 
	C221.820999,244.996399 221.901855,245.475021 221.893326,245.717590 
	C219.312637,250.099869 216.740479,254.239609 213.542770,258.690430 
	C209.767319,259.001038 206.565353,259.369110 203.476944,258.933075 
	C192.855911,257.433441 184.727097,260.940216 177.877930,269.320801 
	C174.108200,273.933411 168.652161,277.167816 163.956421,281.023590 
	C161.401382,276.904724 158.846359,272.785889 156.134079,268.360931 
z"/>
<path fill="#C62976" opacity="1.000000" stroke="none" 
	d="
M188.967163,325.013184 
	C190.450851,327.549408 191.934555,330.085663 193.690308,332.814697 
	C195.138596,335.184235 196.314850,337.360992 197.725311,339.771149 
	C200.770203,343.554199 203.580887,347.103882 206.671082,350.830200 
	C209.427353,353.902527 211.904114,356.798218 214.343384,360.078186 
	C205.941223,360.820831 197.578888,361.343781 189.210831,361.461517 
	C185.561935,361.512848 183.290024,359.113037 181.839691,355.754364 
	C177.970047,346.792999 173.944427,337.898956 169.980804,328.978180 
	C170.931534,327.849030 172.146576,326.851440 172.785858,325.567261 
	C175.176987,320.763794 179.029663,319.181183 184.825317,320.153656 
	C186.677689,321.893677 187.822418,323.453430 188.967163,325.013184 
z"/>
<path fill="#C12878" opacity="1.000000" stroke="none" 
	d="
M169.710388,329.150879 
	C173.944427,337.898956 177.970047,346.792999 181.839691,355.754364 
	C183.290024,359.113037 185.561935,361.512848 189.210831,361.461517 
	C197.578888,361.343781 205.941223,360.820831 214.619446,360.262451 
	C216.764877,361.607086 218.596725,363.151703 220.705490,364.871704 
	C222.852203,366.528107 224.721985,368.009033 226.460754,369.938538 
	C225.858261,370.541077 225.387222,370.828461 224.915298,370.829926 
	C208.483719,370.880707 192.048950,371.058685 175.624557,370.726196 
	C173.693832,370.687134 171.053085,368.202179 170.053375,366.196960 
	C165.764206,357.593811 161.965698,348.746002 157.988388,339.987366 
	C160.209030,337.850403 162.429688,335.713440 164.826752,333.298096 
	C166.482101,331.787628 167.961044,330.555603 169.710388,329.150879 
z"/>
<path fill="#C13E89" opacity="1.000000" stroke="none" 
	d="
M164.036804,281.371765 
	C168.652161,277.167816 174.108200,273.933411 177.877930,269.320801 
	C184.727097,260.940216 192.855911,257.433441 203.476944,258.933075 
	C206.565353,259.369110 209.767319,259.001038 213.374481,259.002075 
	C212.889023,260.759888 211.946320,262.517120 210.942780,264.617432 
	C209.276108,267.704315 207.670242,270.448151 205.731537,273.763062 
	C202.585510,275.076263 199.069290,274.999207 197.082672,276.704315 
	C189.097549,283.557739 181.585724,290.962616 173.899017,298.163696 
	C170.638412,292.682465 167.377792,287.201202 164.036804,281.371765 
z"/>
<path fill="#B93F8B" opacity="1.000000" stroke="none" 
	d="
M173.997314,298.496796 
	C181.585724,290.962616 189.097549,283.557739 197.082672,276.704315 
	C199.069290,274.999207 202.585510,275.076263 205.726730,274.117584 
	C206.327209,273.958832 206.575745,274.070038 206.974838,274.343079 
	C207.534119,275.515198 207.918976,276.578827 208.589294,277.836731 
	C209.384964,278.950073 209.895187,279.869171 210.679535,280.950623 
	C211.523483,282.105652 212.093338,283.098297 212.903778,284.266541 
	C213.711349,285.757965 214.278336,287.073792 215.006165,288.719604 
	C215.167023,289.049561 214.999374,289.027344 214.579926,289.161865 
	C209.190231,289.798889 205.300842,292.006256 201.660370,295.579224 
	C195.411560,301.712158 188.567917,307.239075 181.973969,313.020386 
	C179.347855,308.290222 176.721741,303.560059 173.997314,298.496796 
z"/>
<path fill="#B3408C" opacity="1.000000" stroke="none" 
	d="
M182.130310,313.325867 
	C188.567917,307.239075 195.411560,301.712158 201.660370,295.579224 
	C205.300842,292.006256 209.190231,289.798889 214.499420,289.135986 
	C217.224808,293.064301 219.611267,297.152924 222.055206,301.599792 
	C213.554276,300.436951 209.381027,307.330322 203.988098,311.639526 
	C198.932358,315.679321 194.335724,320.293671 189.252106,324.834198 
	C187.822418,323.453430 186.677689,321.893677 185.266479,320.143402 
	C184.095535,317.845703 183.191086,315.738556 182.130310,313.325867 
z"/>
<path fill="#BD2879" opacity="1.000000" stroke="none" 
	d="
M157.701126,340.166138 
	C161.965698,348.746002 165.764206,357.593811 170.053375,366.196960 
	C171.053085,368.202179 173.693832,370.687134 175.624557,370.726196 
	C192.048950,371.058685 208.483719,370.880707 224.915298,370.829926 
	C225.387222,370.828461 225.858261,370.541077 226.689423,370.171143 
	C230.170639,371.841248 233.292191,373.727264 237.006821,375.920959 
	C239.088181,377.146454 240.576431,378.064301 241.674103,379.138550 
	C239.315857,379.529633 237.348557,379.964691 235.380417,379.968597 
	C211.759216,380.015656 188.136978,379.887543 164.517288,380.081451 
	C159.012344,380.126648 156.084000,377.949493 154.030273,372.927551 
	C150.708405,364.804535 146.707153,356.959290 142.992813,348.996765 
	C143.254440,348.504974 143.516068,348.013184 143.909897,347.276428 
	C148.499359,344.802612 152.956604,342.573730 157.701126,340.166138 
z"/>
<path fill="#B7277B" opacity="1.000000" stroke="none" 
	d="
M142.624420,349.074585 
	C146.707153,356.959290 150.708405,364.804535 154.030273,372.927551 
	C156.084000,377.949493 159.012344,380.126648 164.517288,380.081451 
	C188.136978,379.887543 211.759216,380.015656 235.380417,379.968597 
	C237.348557,379.964691 239.315857,379.529633 242.032349,379.209106 
	C245.834152,380.095520 248.887146,381.067749 252.202698,382.256470 
	C254.316940,383.292206 256.168579,384.111450 258.020233,384.930664 
	C255.931030,385.287048 253.842377,385.950378 251.752563,385.954102 
	C216.158554,386.017761 180.564392,386.006378 144.970276,385.993988 
	C137.721848,385.991455 135.977737,384.737976 133.256393,378.284149 
	C131.061905,373.079865 128.507553,368.020752 126.477158,362.756683 
	C125.505379,360.237213 125.377777,357.392181 124.933731,354.347290 
	C130.751755,352.384125 136.503891,350.768280 142.624420,349.074585 
z"/>
<path fill="#8B4697" opacity="1.000000" stroke="none" 
	d="
M258.425873,384.956421 
	C256.168579,384.111450 254.316940,383.292206 252.443100,382.017792 
	C256.495087,377.660675 260.424866,373.593567 264.668274,369.885315 
	C283.290710,353.611450 276.423340,353.920044 303.002716,354.003662 
	C297.009216,359.664276 290.933624,365.241180 285.047150,371.010956 
	C279.980835,375.976776 275.130157,381.162537 270.102966,386.571960 
	C266.291687,386.255951 262.561615,385.619049 258.425873,384.956421 
z"/>
<path fill="#924595" opacity="1.000000" stroke="none" 
	d="
M303.332703,353.862488 
	C276.423340,353.920044 283.290710,353.611450 264.668274,369.885315 
	C260.424866,373.593567 256.495087,377.660675 252.180511,381.801270 
	C248.887146,381.067749 245.834152,380.095520 242.422928,379.052734 
	C240.576431,378.064301 239.088181,377.146454 237.310822,376.065460 
	C237.913818,374.536377 238.589844,372.946503 239.734375,371.842163 
	C245.586899,366.195190 251.222885,360.237366 257.626770,355.282898 
	C261.081573,352.610046 265.851257,350.525543 270.151703,350.271118 
	C281.749115,349.584900 293.413330,349.984924 305.050171,350.072388 
	C306.246643,350.081360 307.437134,350.888824 308.815216,351.665222 
	C307.220917,352.576904 305.441803,353.149078 303.332703,353.862488 
z"/>
</svg>